<svg width="21" height="29" viewBox="0 0 21 29" fill="none" xmlns="http://www.w3.org/2000/svg">
<path d="M14.4175 9.77315L12.8904 5.79563C12.3743 4.45123 11.3452 3.36692 10.0296 2.78125C8.71404 2.19558 7.21967 2.15652 5.87527 2.67265C4.53087 3.18878 3.44657 4.21784 2.8609 5.53344C2.27523 6.84903 2.23616 8.3434 2.7523 9.6878L4.69839 14.7569C5.00938 15.5682 5.51055 16.2931 6.15979 16.8705C6.80903 17.448 7.58737 17.8613 8.42944 18.0755C9.27151 18.2898 10.1527 18.2989 10.999 18.102C11.8453 17.905 12.632 17.5079 13.2929 16.9439L12.7545 15.5415C12.6987 15.3961 12.6274 15.2607 12.54 15.1391C12.1349 15.6216 11.6108 15.99 11.0197 16.2079C10.4285 16.4258 9.79078 16.4857 9.16942 16.3816C8.54807 16.2774 7.96465 16.0129 7.47685 15.6142C6.98905 15.2155 6.61376 14.6964 6.38807 14.1082L4.44199 9.0391C4.0979 8.14284 4.12394 7.14659 4.51439 6.26953C4.90484 5.39246 5.6277 4.70643 6.52397 4.36234C7.42024 4.01825 8.41648 4.04429 9.29355 4.43474C10.1706 4.82519 10.8566 5.54806 11.2007 6.44432L12.1965 9.03799C12.9732 9.16243 13.7234 9.40953 14.4175 9.77315Z" fill="#2245C2"/>
<path d="M16.1336 14.2436C15.8226 13.4323 15.3215 12.7074 14.6722 12.1299C14.023 11.5524 13.2446 11.1392 12.4026 10.9249C11.5605 10.7107 10.6793 10.7016 9.83302 10.8985C8.98673 11.0954 8.20005 11.4926 7.53907 12.0566L8.25134 13.9118C8.6512 13.418 9.17399 13.0381 9.76719 12.8104C10.3604 12.5827 11.0031 12.5151 11.6307 12.6144C12.2583 12.7138 12.8486 12.9766 13.3425 13.3765C13.8363 13.7763 14.2162 14.2991 14.4439 14.8923L16.39 19.9614C16.7341 20.8576 16.7081 21.8539 16.3176 22.7309C15.9272 23.608 15.2043 24.294 14.308 24.6381C13.4118 24.9822 12.4155 24.9562 11.5385 24.5657C10.6614 24.1753 9.97537 23.4524 9.63128 22.5561L8.63553 19.9625C7.86008 19.8384 7.10984 19.5895 6.41392 19.2256L7.94159 23.2048C8.19716 23.8705 8.58133 24.4793 9.07219 24.9965C9.56304 25.5138 10.151 25.9292 10.8024 26.2192C11.4538 26.5092 12.156 26.6681 12.8688 26.6867C13.5816 26.7053 14.2911 26.5834 14.9567 26.3278C15.6224 26.0722 16.2312 25.6881 16.7485 25.1972C17.2657 24.7064 17.6811 24.1184 17.9711 23.467C18.2611 22.8156 18.42 22.1135 18.4386 21.4006C18.4572 20.6878 18.3353 19.9783 18.0797 19.3127L16.1336 14.2436Z" fill="#2245C2"/>
</svg>
