<svg width="436" height="423" viewBox="0 0 436 423" fill="none" xmlns="http://www.w3.org/2000/svg">
<path d="M218 422.823C338.398 422.823 436 366.473 436 296.96C436 227.448 338.398 171.098 218 171.098C97.6019 171.098 0 227.448 0 296.96C0 366.473 97.6019 422.823 218 422.823Z" fill="#F0F0F0"/>
<path d="M343.198 340.633C328.903 332.38 328.903 319.001 343.198 310.748C357.493 302.494 380.671 302.494 394.966 310.748C409.261 319.001 409.261 332.38 394.966 340.633C380.671 348.887 357.493 348.887 343.198 340.633Z" fill="#E0E0E0"/>
<path d="M52.4436 341.78L14.8411 320.074C12.7222 318.852 12.7222 316.863 14.8411 315.642L233.563 189.363C234.752 188.76 236.065 188.446 237.398 188.446C238.731 188.446 240.045 188.76 241.233 189.363L278.845 211.069C280.964 212.29 280.964 214.28 278.845 215.501L60.1232 341.78C58.9329 342.383 57.6175 342.697 56.2834 342.697C54.9493 342.697 53.6339 342.383 52.4436 341.78Z" fill="#E0E0E0"/>
<path d="M187.605 303.086L219.934 284.396C223.265 282.471 224.93 279.955 224.93 277.429C224.93 274.903 224.93 272.932 224.93 272.932L191.399 254.02C190.462 253.414 189.682 252.595 189.123 251.63C188.563 250.665 188.24 249.582 188.179 248.468V208.599L131.738 241.223V281.074C131.803 282.187 132.128 283.269 132.688 284.233C133.247 285.197 134.025 286.017 134.958 286.626L163.493 303.058C170.136 306.935 180.943 306.935 187.605 303.086Z" fill="#2061EC"/>
<g opacity="0.6">
<path d="M187.605 303.086L219.934 284.396C223.265 282.471 224.93 279.955 224.93 277.429C224.93 274.903 224.93 272.932 224.93 272.932L191.399 254.02C190.462 253.414 189.682 252.595 189.123 251.63C188.563 250.665 188.24 249.582 188.179 248.468V208.599L131.738 241.223V281.074C131.803 282.187 132.128 283.269 132.688 284.233C133.247 285.197 134.025 286.017 134.958 286.626L163.493 303.058C170.136 306.935 180.943 306.935 187.605 303.086Z" fill="black"/>
</g>
<path opacity="0.3" d="M145.274 288.134V292.612L134.929 286.644C133.996 286.036 133.219 285.216 132.661 284.252C132.103 283.287 131.781 282.205 131.719 281.092V241.223L142.47 235.015C142.692 237.744 142.933 240.566 143.164 243.342L135.605 247.691V278.826C135.665 279.94 135.988 281.023 136.547 281.988C137.107 282.953 137.888 283.772 138.825 284.377L145.274 288.134Z" fill="black"/>
<path d="M135.605 278.835C135.669 279.948 135.994 281.031 136.553 281.995C137.112 282.96 137.891 283.779 138.825 284.387L163.456 298.58C170.118 302.42 180.925 302.429 187.596 298.58L219.98 279.89C226.651 276.041 226.651 269.805 219.98 265.956L195.331 251.762C194.399 251.153 193.622 250.333 193.065 249.369C192.507 248.404 192.183 247.323 192.12 246.211V215.066L135.679 247.691L135.605 278.835Z" fill="#2061EC"/>
<path opacity="0.3" d="M135.605 278.835C135.669 279.948 135.994 281.031 136.553 281.995C137.112 282.96 137.891 283.779 138.825 284.387L163.456 298.58C170.118 302.42 180.925 302.429 187.596 298.58L219.98 279.89C226.651 276.041 226.651 269.805 219.98 265.956L195.331 251.762C194.399 251.153 193.622 250.333 193.065 249.369C192.507 248.404 192.183 247.323 192.12 246.211V215.066L135.679 247.691L135.605 278.835Z" fill="black"/>
<path opacity="0.5" d="M201.854 255.565L195.294 251.781C194.362 251.171 193.585 250.351 193.028 249.387C192.47 248.423 192.147 247.341 192.083 246.229V215.066L135.643 247.691V278.835C135.706 279.948 136.031 281.031 136.59 281.995C137.149 282.96 137.928 283.779 138.862 284.387L145.339 288.088L201.854 255.565Z" fill="black"/>
<path d="M224.939 272.941V277.438C224.939 279.964 223.264 282.472 219.943 284.405L187.559 303.086C184.015 304.978 180.056 305.96 176.039 305.945V301.467C180.056 301.482 184.015 300.5 187.559 298.608L219.943 279.909C223.264 277.993 224.939 275.467 224.939 272.941Z" fill="#2061EC"/>
<path opacity="0.5" d="M224.939 272.941V277.438C224.939 279.964 223.264 282.472 219.943 284.405L187.559 303.086C184.015 304.978 180.056 305.96 176.039 305.945V301.467C180.056 301.482 184.015 300.5 187.559 298.608L219.943 279.909C223.264 277.993 224.939 275.467 224.939 272.941Z" fill="black"/>
<path d="M44.9295 317.539C46.1497 318.128 47.4912 318.422 48.846 318.398C50.2008 318.374 51.5311 318.032 52.7295 317.4L271.09 191.333C272.261 190.57 273.236 189.541 273.935 188.331C274.634 187.12 275.039 185.762 275.115 184.366V7.71606C275.073 6.35813 274.711 5.02928 274.059 3.83783C273.406 2.64637 272.481 1.62601 271.359 0.859899C270.14 0.269914 268.799 -0.0241704 267.446 0.00155338C266.092 0.0272772 264.763 0.372083 263.568 1.00794L45.2071 127.111C44.0403 127.88 43.0717 128.913 42.3803 130.127C41.6889 131.341 41.2942 132.701 41.2285 134.097V310.72C41.2698 312.066 41.6261 313.385 42.2688 314.569C42.9115 315.753 43.8228 316.77 44.9295 317.539Z" fill="#2061EC"/>
<path d="M52.7573 317.39L271.118 191.324C272.291 190.562 273.266 189.533 273.966 188.323C274.665 187.112 275.069 185.753 275.143 184.357V7.71567C275.143 5.1527 273.339 4.10716 271.118 5.39327L52.7573 131.46C51.5859 132.223 50.611 133.251 49.9117 134.462C49.2124 135.672 48.8083 137.031 48.7324 138.427V315.068C48.7324 317.631 50.5367 318.676 52.7573 317.39Z" fill="#2061EC"/>
<path opacity="0.5" d="M52.7573 317.39L271.118 191.324C272.291 190.562 273.266 189.533 273.966 188.323C274.665 187.112 275.069 185.753 275.143 184.357V7.71567C275.143 5.1527 273.339 4.10716 271.118 5.39327L52.7573 131.46C51.5859 132.223 50.611 133.251 49.9117 134.462C49.2124 135.672 48.8083 137.031 48.7324 138.427V315.068C48.7324 317.631 50.5367 318.676 52.7573 317.39Z" fill="black"/>
<path d="M52.1651 321.98C51.02 322.48 49.7802 322.725 48.5311 322.7C47.2819 322.674 46.0532 322.378 44.9295 321.832C43.8203 321.061 42.9075 320.041 42.2647 318.854C41.6218 317.666 41.2669 316.344 41.2285 314.994V298.913L48.7694 303.28V319.361C48.7231 321.702 50.2128 322.766 52.1651 321.98Z" fill="#2061EC"/>
<path opacity="0.5" d="M52.1651 321.98C51.02 322.48 49.7802 322.725 48.5311 322.7C47.2819 322.674 46.0532 322.378 44.9295 321.832C43.8203 321.061 42.9075 320.041 42.2647 318.854C41.6218 317.666 41.2669 316.344 41.2285 314.994V298.913L48.7694 303.28V319.361C48.7231 321.702 50.2128 322.766 52.1651 321.98Z" fill="black"/>
<path d="M48.7227 303.28V319.361C48.7227 321.924 50.5732 322.961 52.7475 321.684L271.108 195.617C272.274 194.857 273.246 193.835 273.945 192.631C274.644 191.427 275.051 190.077 275.133 188.687V172.532L48.7227 303.28Z" fill="#2061EC"/>
<path opacity="0.3" d="M48.7324 303.243V319.361C48.7324 321.924 50.5829 322.961 52.7573 321.684L271.118 195.617C272.282 194.856 273.252 193.833 273.95 192.63C274.647 191.426 275.052 190.076 275.134 188.687V172.532L48.7324 303.243Z" fill="black"/>
<path d="M56.2734 283.063V140.934C56.3165 140.097 56.5569 139.282 56.9749 138.555C57.393 137.828 57.9769 137.21 58.6791 136.752L265.141 17.514C266.474 16.7461 267.556 17.366 267.556 18.9019V161.105C267.511 161.943 267.269 162.758 266.849 163.485C266.43 164.212 265.845 164.829 265.141 165.287L58.6884 284.497C57.356 285.265 56.2734 284.636 56.2734 283.063Z" fill="#2061EC"/>
<path d="M56.2734 283.063V140.934C56.3165 140.097 56.5569 139.282 56.9749 138.555C57.393 137.828 57.9769 137.21 58.6791 136.752L265.141 17.514C266.474 16.7461 267.556 17.366 267.556 18.9019V161.105C267.511 161.943 267.269 162.758 266.849 163.485C266.43 164.212 265.845 164.829 265.141 165.287L58.6884 284.497C57.356 285.265 56.2734 284.636 56.2734 283.063Z" fill="#263238"/>
<path d="M161.929 243.028C160.83 243.742 159.916 244.707 159.26 245.842C158.604 246.977 158.225 248.251 158.154 249.56C158.154 251.966 159.848 252.946 161.929 251.744C163.03 251.028 163.945 250.062 164.601 248.925C165.257 247.789 165.635 246.513 165.704 245.202C165.704 242.796 164.011 241.825 161.929 243.028Z" fill="#2061EC"/>
<path opacity="0.7" d="M49.9167 134.448C49.1996 135.654 48.7897 137.017 48.7231 138.418V303.28L41.2285 298.913V134.097C41.2771 132.691 41.6848 131.321 42.4128 130.118L49.9167 134.448Z" fill="black"/>
<path opacity="0.3" d="M275.097 7.05007C274.81 4.9775 273.135 4.2743 271.109 5.39387L52.7481 131.46C51.5641 132.201 50.5869 133.229 49.9075 134.449L42.3574 130.091C43.0414 128.871 44.0214 127.843 45.2072 127.102L263.568 1.04515C264.765 0.409206 266.095 0.064384 267.45 0.0386624C268.806 0.0129408 270.148 0.307044 271.368 0.897111C272.394 1.59601 273.258 2.50702 273.901 3.56854C274.544 4.63005 274.952 5.81733 275.097 7.05007Z" fill="black"/>
<path d="M286.875 28.7943C286.551 28.6315 286.188 28.5602 285.826 28.5879C285.465 28.6156 285.117 28.7413 284.821 28.9516L78.7848 147.977C77.9718 148.515 77.2968 149.236 76.8146 150.083C76.3324 150.93 76.0564 151.879 76.009 152.853V294.112C75.9801 294.589 76.0748 295.065 76.2839 295.495C76.493 295.924 76.8094 296.292 77.2026 296.564C77.6559 296.814 80.0801 298.22 80.8018 298.609C81.0572 298.739 81.3425 298.799 81.6285 298.783C81.9146 298.766 82.1913 298.674 82.4303 298.516L288.42 179.491C289.233 178.953 289.908 178.232 290.391 177.384C290.873 176.537 291.149 175.589 291.196 174.615V32.6248C291.238 32.266 291.178 31.9028 291.024 31.5759C290.871 31.249 290.629 30.9715 290.326 30.7743C289.864 30.469 287.393 29.0996 286.875 28.7943Z" fill="#2061EC"/>
<path d="M82.3851 149.974L288.431 30.9955C289.985 30.0703 291.207 30.829 291.207 32.624V174.614C291.159 175.588 290.883 176.536 290.401 177.384C289.919 178.231 289.244 178.952 288.431 179.49L82.3851 298.515C80.8307 299.441 79.6094 297.951 79.6094 296.156V154.851C79.6582 153.877 79.9348 152.929 80.4169 152.082C80.899 151.235 81.5732 150.513 82.3851 149.974Z" fill="#FAFAFA"/>
<path d="M289.689 31.5327C290.235 31.5327 290.318 32.2174 290.318 32.6245V174.615C290.268 175.43 290.029 176.222 289.62 176.929C289.21 177.636 288.642 178.237 287.959 178.686L81.941 297.711C81.8027 297.8 81.643 297.852 81.4784 297.859C80.9602 297.859 80.5531 297.063 80.5531 296.156V154.851C80.5978 154.036 80.8297 153.242 81.2309 152.531C81.632 151.82 82.1917 151.212 82.8663 150.752L288.893 31.7918C289.132 31.6379 289.406 31.5487 289.689 31.5327ZM289.689 30.6074C289.243 30.6264 288.81 30.7603 288.431 30.996L82.3851 149.975C81.5732 150.514 80.899 151.236 80.4169 152.083C79.9348 152.93 79.6582 153.878 79.6094 154.851V296.156C79.6094 297.581 80.4051 298.784 81.4599 298.784C81.7866 298.778 82.1058 298.685 82.3851 298.516L288.422 179.491C289.235 178.953 289.909 178.231 290.392 177.384C290.874 176.537 291.15 175.588 291.197 174.615V32.6245C291.197 31.3476 290.568 30.6074 289.643 30.6074H289.689Z" fill="#E0E0E0"/>
<path d="M77.1468 296.564C77.4521 296.721 79.645 297.97 80.6073 298.526C80.2617 298.239 79.9881 297.876 79.8081 297.464C79.6282 297.053 79.547 296.605 79.571 296.157V164.076L75.9625 161.967V294.112C75.9326 294.588 76.0259 295.064 76.2333 295.493C76.4408 295.923 76.7554 296.292 77.1468 296.564Z" fill="#F0F0F0"/>
<path d="M291.244 32.5971C291.244 30.8206 289.976 30.0989 288.468 30.9964L82.3851 149.975C81.5732 150.514 80.899 151.236 80.4169 152.083C79.9348 152.93 79.6582 153.878 79.6094 154.851V164.104L291.244 41.8497V32.5971Z" fill="#2061EC"/>
<g opacity="0.4">
<path d="M288.431 30.996L82.385 149.966C81.5581 150.487 80.8768 151.21 80.405 152.066L76.8242 149.984C77.2953 149.158 77.9707 148.467 78.7858 147.976L284.822 28.9512C285.117 28.7394 285.464 28.6121 285.826 28.5827C286.188 28.5534 286.551 28.6232 286.876 28.7846C287.376 29.0992 289.717 30.4223 290.318 30.7462C290.007 30.6308 289.672 30.5932 289.343 30.6368C289.014 30.6803 288.701 30.8036 288.431 30.996Z" fill="white"/>
</g>
<path opacity="0.15" d="M75.9629 161.976V152.806C76.0009 151.807 76.2974 150.835 76.8234 149.984L80.4134 152.057C79.8949 152.893 79.6046 153.85 79.5714 154.833V164.085L75.9629 161.976Z" fill="black"/>
<path d="M247.793 139.112L124.391 210.357C123.791 210.746 123.292 211.272 122.933 211.891C122.575 212.51 122.367 213.205 122.328 213.919V249.301C122.367 250.015 122.575 250.71 122.933 251.329C123.292 251.948 123.791 252.474 124.391 252.863L127.991 254.936C128.63 255.26 129.337 255.428 130.054 255.428C130.771 255.428 131.478 255.26 132.117 254.936L255.5 183.691C256.101 183.3 256.6 182.772 256.959 182.152C257.317 181.531 257.525 180.835 257.564 180.12V144.728C257.525 144.014 257.317 143.319 256.959 142.7C256.6 142.081 256.101 141.556 255.5 141.166L251.892 139.094C251.255 138.775 250.552 138.611 249.84 138.614C249.128 138.618 248.427 138.788 247.793 139.112Z" fill="#2061EC"/>
<path opacity="0.5" d="M257.563 144.415C257.415 143.351 256.554 142.962 255.518 143.563L132.116 214.808C131.507 215.186 131.007 215.716 130.663 216.344L122.938 211.884C123.284 211.266 123.78 210.744 124.381 210.367L247.792 139.122C248.43 138.798 249.135 138.629 249.851 138.629C250.566 138.629 251.271 138.798 251.909 139.122L255.518 141.195C256.068 141.555 256.535 142.029 256.887 142.584C257.24 143.139 257.47 143.763 257.563 144.415Z" fill="white"/>
<path d="M131.766 255.112C131.162 255.35 130.514 255.458 129.865 255.43C129.216 255.401 128.581 255.236 128 254.945L124.391 252.873C123.792 252.482 123.294 251.956 122.935 251.338C122.577 250.719 122.369 250.024 122.328 249.31V213.929C122.356 213.206 122.566 212.503 122.939 211.884L130.665 216.344C130.289 216.955 130.079 217.653 130.054 218.37V253.761C130.054 254.936 130.794 255.482 131.766 255.112Z" fill="#263238"/>
<path d="M132.117 214.808L255.519 143.563C256.657 142.906 257.582 143.433 257.582 144.747V180.138C257.543 180.854 257.336 181.55 256.977 182.17C256.619 182.791 256.119 183.318 255.519 183.71L132.136 254.955C130.998 255.611 130.072 255.075 130.072 253.761V218.379C130.109 217.665 130.314 216.97 130.669 216.35C131.024 215.729 131.52 215.201 132.117 214.808Z" fill="#2061EC"/>
<path d="M215.076 158.006L124.4 210.366C123.8 210.743 123.303 211.265 122.957 211.884L130.683 216.343C131.027 215.715 131.527 215.186 132.136 214.807L222.811 162.456L215.076 158.006Z" fill="#455A64"/>
<path d="M222.791 162.457L132.116 214.808C131.516 215.2 131.016 215.727 130.658 216.347C130.299 216.968 130.092 217.664 130.053 218.38V253.752C130.053 255.066 130.978 255.603 132.116 254.946L222.791 202.595V162.457Z" fill="#37474F"/>
<path d="M153.028 210.496L199.818 183.488C201.752 182.368 203.325 183.164 203.325 185.264C203.238 186.444 202.875 187.586 202.264 188.599C201.653 189.612 200.812 190.467 199.809 191.093L153.028 218.111C151.094 219.23 149.512 218.435 149.512 216.334C149.599 215.154 149.963 214.01 150.573 212.996C151.184 211.982 152.025 211.125 153.028 210.496Z" fill="#2061EC"/>
<path d="M162.613 219.443C162.621 219.434 162.632 219.426 162.644 219.42C162.656 219.415 162.669 219.412 162.682 219.412C162.695 219.412 162.708 219.415 162.72 219.42C162.732 219.426 162.743 219.434 162.751 219.443C162.793 219.506 162.812 219.581 162.807 219.656V224.921C162.807 225.43 162.764 225.937 162.677 226.438C162.601 226.896 162.47 227.344 162.289 227.771C162.123 228.162 161.905 228.529 161.641 228.863C161.381 229.172 161.067 229.432 160.716 229.631C160.44 229.81 160.119 229.906 159.791 229.908C159.665 229.898 159.543 229.863 159.431 229.804C159.32 229.745 159.222 229.664 159.143 229.566C158.94 229.294 158.806 228.976 158.754 228.64C158.666 228.193 158.625 227.737 158.634 227.28V222.006C158.634 221.914 158.653 221.823 158.689 221.738C158.712 221.662 158.761 221.596 158.828 221.553L159.411 221.211C159.43 221.193 159.455 221.183 159.481 221.183C159.506 221.183 159.531 221.193 159.55 221.211C159.593 221.273 159.612 221.348 159.605 221.423V226.623C159.598 226.91 159.626 227.195 159.689 227.475C159.714 227.653 159.791 227.821 159.911 227.956C159.952 228.005 160.005 228.045 160.064 228.07C160.124 228.096 160.188 228.107 160.253 228.104C160.411 228.093 160.564 228.042 160.697 227.956C160.862 227.857 161.011 227.736 161.141 227.595C161.286 227.429 161.404 227.241 161.493 227.04C161.597 226.802 161.675 226.554 161.724 226.3C161.778 225.994 161.803 225.684 161.798 225.374V220.165C161.801 220.072 161.823 219.981 161.863 219.897C161.886 219.821 161.935 219.755 162.002 219.712L162.613 219.443Z" fill="#FAFAFA"/>
<path d="M166.238 224.422C166.243 224.354 166.227 224.286 166.192 224.227C166.17 224.203 166.143 224.185 166.112 224.174C166.082 224.162 166.049 224.159 166.016 224.163C165.903 224.147 165.788 224.147 165.674 224.163L165.137 224.264C164.964 224.307 164.783 224.307 164.61 224.264C164.474 224.221 164.357 224.133 164.277 224.015C164.186 223.864 164.127 223.698 164.101 223.524C164.011 223.029 164.011 222.521 164.101 222.025C164.171 221.741 164.27 221.465 164.397 221.202C164.524 220.939 164.679 220.691 164.86 220.462C165.035 220.243 165.248 220.058 165.489 219.916C165.684 219.797 165.901 219.721 166.127 219.694C166.292 219.677 166.457 219.712 166.599 219.795C166.735 219.878 166.842 220.001 166.905 220.147C166.979 220.32 167.02 220.505 167.025 220.693C167.035 220.786 167.015 220.88 166.969 220.961C166.947 221.037 166.898 221.103 166.831 221.146L166.275 221.47C166.25 221.485 166.221 221.492 166.192 221.492C166.163 221.492 166.134 221.485 166.109 221.47L165.989 221.378C165.941 221.34 165.883 221.317 165.822 221.313C165.703 221.326 165.589 221.367 165.489 221.433C165.344 221.521 165.215 221.633 165.11 221.766C164.998 221.912 164.939 222.091 164.943 222.275C164.93 222.345 164.93 222.418 164.943 222.488C164.961 222.514 164.984 222.536 165.011 222.552C165.039 222.568 165.069 222.578 165.1 222.58C165.201 222.597 165.305 222.597 165.406 222.58L165.924 222.488C166.359 222.405 166.655 222.488 166.849 222.728C167.053 223.071 167.147 223.469 167.117 223.866C167.115 224.142 167.078 224.415 167.006 224.681C166.933 224.969 166.828 225.249 166.692 225.513C166.556 225.787 166.385 226.042 166.183 226.272C165.991 226.497 165.763 226.688 165.508 226.837C165.304 226.967 165.072 227.046 164.832 227.068C164.658 227.074 164.487 227.025 164.342 226.929C164.199 226.832 164.089 226.693 164.027 226.531C163.952 226.356 163.915 226.167 163.916 225.976C163.907 225.88 163.927 225.784 163.972 225.699C163.994 225.622 164.043 225.557 164.11 225.513L164.666 225.19C164.74 225.19 164.795 225.143 164.832 225.19L164.952 225.319C164.977 225.347 165.007 225.369 165.04 225.385C165.074 225.401 165.11 225.41 165.147 225.412C165.277 225.412 165.404 225.37 165.508 225.291C165.675 225.197 165.825 225.075 165.952 224.931C166.015 224.854 166.067 224.77 166.109 224.681C166.174 224.607 166.219 224.518 166.238 224.422Z" fill="#FAFAFA"/>
<path d="M168.127 221.913C168.126 221.433 168.166 220.953 168.248 220.479C168.325 220.034 168.446 219.597 168.608 219.175C168.744 218.796 168.931 218.438 169.164 218.111C169.357 217.829 169.61 217.592 169.904 217.417C170.118 217.272 170.38 217.216 170.635 217.259C170.861 217.312 171.059 217.447 171.19 217.639C171.364 217.89 171.487 218.173 171.551 218.471C171.639 218.86 171.683 219.257 171.68 219.656V220.229C171.683 220.326 171.661 220.422 171.615 220.507C171.593 220.583 171.544 220.649 171.477 220.692L169.071 222.089C169.065 222.252 169.087 222.415 169.136 222.57C169.172 222.675 169.236 222.768 169.321 222.839C169.397 222.899 169.492 222.929 169.589 222.922C169.701 222.909 169.808 222.871 169.904 222.811C170.044 222.735 170.169 222.635 170.274 222.515C170.369 222.408 170.449 222.29 170.514 222.163C170.554 222.09 170.597 222.019 170.644 221.95C170.684 221.903 170.731 221.863 170.783 221.83L171.356 221.497C171.376 221.481 171.401 221.473 171.426 221.473C171.451 221.473 171.475 221.481 171.495 221.497C171.519 221.526 171.537 221.56 171.547 221.597C171.556 221.634 171.558 221.672 171.551 221.71C171.541 221.89 171.503 222.068 171.44 222.237C171.36 222.494 171.254 222.742 171.125 222.977C170.98 223.248 170.807 223.503 170.607 223.736C170.408 223.974 170.17 224.178 169.904 224.338C169.685 224.481 169.423 224.543 169.164 224.513C168.936 224.459 168.738 224.32 168.608 224.125C168.426 223.844 168.303 223.529 168.248 223.199C168.163 222.776 168.123 222.345 168.127 221.913ZM169.904 218.962C169.761 219.038 169.638 219.146 169.543 219.276C169.44 219.406 169.356 219.549 169.293 219.702C169.228 219.855 169.176 220.013 169.136 220.174C169.103 220.32 169.082 220.469 169.071 220.618L170.699 219.693C170.69 219.565 170.671 219.438 170.644 219.313C170.63 219.202 170.585 219.096 170.514 219.008C170.487 218.968 170.451 218.934 170.41 218.909C170.368 218.883 170.322 218.867 170.274 218.86C170.142 218.849 170.011 218.885 169.904 218.962Z" fill="#FAFAFA"/>
<path d="M174.587 216.38C174.307 216.54 174.086 216.787 173.958 217.084C173.814 217.474 173.748 217.889 173.764 218.305V221.645C173.765 221.741 173.746 221.835 173.708 221.923C173.685 221.999 173.636 222.065 173.569 222.108L173.023 222.422C173.015 222.432 173.004 222.44 172.992 222.445C172.98 222.451 172.967 222.454 172.954 222.454C172.941 222.454 172.928 222.451 172.916 222.445C172.904 222.44 172.893 222.432 172.885 222.422C172.843 222.359 172.824 222.285 172.829 222.21V216.223C172.829 216.128 172.848 216.034 172.885 215.946C172.91 215.871 172.959 215.806 173.023 215.761L173.569 215.446C173.588 215.428 173.613 215.419 173.639 215.419C173.664 215.419 173.689 215.428 173.708 215.446C173.751 215.505 173.771 215.577 173.764 215.65V215.946C173.874 215.697 174.01 215.462 174.171 215.242C174.317 215.04 174.507 214.872 174.726 214.752L175.059 214.558C175.076 214.541 175.099 214.531 175.124 214.531C175.148 214.531 175.171 214.541 175.188 214.558C175.233 214.619 175.256 214.694 175.253 214.77V215.612C175.252 215.709 175.23 215.803 175.188 215.89C175.165 215.963 175.12 216.028 175.059 216.075L174.587 216.38Z" fill="#FAFAFA"/>
<path d="M181.488 215.936C181.497 215.927 181.508 215.919 181.52 215.913C181.532 215.908 181.545 215.905 181.558 215.905C181.571 215.905 181.584 215.908 181.596 215.913C181.608 215.919 181.619 215.927 181.627 215.936C181.669 215.999 181.688 216.074 181.683 216.149V217.074C181.682 217.17 181.663 217.264 181.627 217.352C181.595 217.421 181.548 217.481 181.488 217.528L178.324 219.378C178.305 219.396 178.28 219.406 178.255 219.406C178.229 219.406 178.204 219.396 178.185 219.378C178.144 219.319 178.124 219.247 178.13 219.175V210.847C178.13 210.752 178.149 210.658 178.185 210.57C178.211 210.498 178.26 210.436 178.324 210.394L178.907 210.052C178.926 210.034 178.951 210.024 178.976 210.024C179.002 210.024 179.027 210.034 179.046 210.052C179.087 210.111 179.107 210.183 179.101 210.255V217.297L181.488 215.936Z" fill="#FAFAFA"/>
<path d="M184.329 209.09C184.537 208.946 184.789 208.877 185.042 208.896C185.258 208.913 185.46 209.012 185.606 209.173C185.778 209.371 185.905 209.605 185.976 209.858C186.075 210.185 186.131 210.524 186.143 210.866C186.143 210.94 186.143 211.042 186.143 211.162V211.875C186.143 211.986 186.143 212.088 186.143 212.171C186.124 212.573 186.069 212.973 185.976 213.365C185.891 213.746 185.767 214.118 185.606 214.475C185.459 214.807 185.27 215.118 185.042 215.4C184.846 215.656 184.605 215.872 184.329 216.039C184.115 216.178 183.862 216.246 183.607 216.233C183.394 216.214 183.195 216.115 183.052 215.955C182.875 215.764 182.748 215.532 182.682 215.28C182.583 214.952 182.527 214.613 182.516 214.271C182.516 214.197 182.516 214.105 182.516 213.984V213.272C182.516 213.152 182.516 213.05 182.516 212.976C182.526 212.571 182.579 212.168 182.673 211.773C182.763 211.389 182.89 211.014 183.052 210.654C183.199 210.324 183.386 210.013 183.607 209.728C183.804 209.47 184.049 209.253 184.329 209.09ZM185.199 211.477C185.198 211.272 185.164 211.069 185.097 210.876C185.063 210.758 184.991 210.654 184.894 210.579C184.815 210.527 184.72 210.504 184.625 210.515C184.519 210.535 184.419 210.576 184.329 210.635C184.22 210.695 184.121 210.769 184.033 210.857C183.927 210.967 183.837 211.092 183.765 211.227C183.672 211.395 183.603 211.576 183.561 211.764C183.5 212 183.463 212.242 183.45 212.486C183.45 212.56 183.45 212.643 183.45 212.745V213.402C183.45 213.503 183.45 213.587 183.45 213.642C183.459 213.847 183.496 214.049 183.561 214.244C183.595 214.362 183.666 214.466 183.765 214.54C183.803 214.567 183.847 214.586 183.893 214.595C183.939 214.605 183.987 214.605 184.033 214.595C184.138 214.577 184.238 214.54 184.329 214.484C184.436 214.422 184.536 214.348 184.625 214.262C184.728 214.149 184.818 214.025 184.894 213.892C184.983 213.722 185.051 213.542 185.097 213.355C185.158 213.119 185.192 212.877 185.199 212.634C185.204 212.547 185.204 212.461 185.199 212.374V211.727C185.204 211.644 185.204 211.56 185.199 211.477Z" fill="#FAFAFA"/>
<path d="M188.974 214.502C189.093 214.43 189.199 214.339 189.289 214.234C189.4 214.103 189.496 213.96 189.576 213.808C189.668 213.622 189.739 213.427 189.788 213.225C189.845 212.998 189.873 212.765 189.872 212.531V212.059C189.872 212.152 189.779 212.263 189.714 212.392C189.651 212.528 189.577 212.658 189.492 212.781C189.396 212.911 189.291 213.035 189.178 213.151C189.062 213.273 188.927 213.376 188.78 213.456C188.685 213.521 188.578 213.566 188.465 213.589C188.352 213.611 188.236 213.61 188.123 213.586C187.917 213.522 187.741 213.387 187.623 213.207C187.472 212.968 187.363 212.705 187.299 212.429C187.221 212.08 187.177 211.724 187.17 211.365C187.17 211.245 187.17 211.097 187.17 210.921C187.17 210.745 187.17 210.597 187.17 210.468C187.181 210.061 187.225 209.656 187.299 209.256C187.375 208.862 187.484 208.475 187.623 208.099C187.754 207.773 187.922 207.462 188.123 207.174C188.294 206.919 188.518 206.704 188.78 206.545C188.903 206.471 189.037 206.418 189.178 206.388C189.282 206.368 189.388 206.368 189.492 206.388C189.574 206.411 189.65 206.452 189.714 206.508C189.774 206.553 189.826 206.606 189.872 206.665V206.369C189.872 206.274 189.891 206.18 189.927 206.091C189.953 206.019 190.002 205.958 190.066 205.916L190.612 205.592C190.631 205.574 190.656 205.564 190.681 205.564C190.707 205.564 190.732 205.574 190.751 205.592C190.795 205.654 190.818 205.728 190.815 205.805V211.819C190.84 212.72 190.673 213.615 190.325 214.446C190.052 215.1 189.579 215.651 188.974 216.019C188.768 216.148 188.532 216.221 188.289 216.232C188.098 216.244 187.907 216.195 187.744 216.093C187.587 215.976 187.46 215.824 187.373 215.649C187.283 215.438 187.233 215.212 187.225 214.983C187.217 214.887 187.236 214.791 187.281 214.706C187.304 214.629 187.353 214.564 187.42 214.521L187.91 214.243C187.921 214.231 187.935 214.221 187.95 214.215C187.965 214.208 187.982 214.205 187.998 214.205C188.015 214.205 188.031 214.208 188.046 214.215C188.061 214.221 188.075 214.231 188.086 214.243C188.132 214.291 188.172 214.344 188.206 214.4C188.263 214.499 188.356 214.573 188.465 214.604C188.576 214.687 188.743 214.595 188.974 214.502ZM188.104 210.015C188.104 210.261 188.104 210.502 188.104 210.736C188.078 211.106 188.183 211.473 188.401 211.773C188.483 211.843 188.588 211.883 188.697 211.883C188.805 211.883 188.91 211.843 188.993 211.773C189.261 211.598 189.471 211.346 189.594 211.051C189.763 210.665 189.857 210.25 189.872 209.829C189.872 209.691 189.872 209.524 189.872 209.33C189.872 209.136 189.872 208.969 189.872 208.849C189.89 208.517 189.792 208.19 189.594 207.923C189.512 207.848 189.405 207.806 189.293 207.806C189.182 207.806 189.075 207.848 188.993 207.923C188.729 208.097 188.523 208.345 188.401 208.636C188.21 209.071 188.11 209.54 188.104 210.015Z" fill="#FAFAFA"/>
<path d="M192.971 201.799C192.99 201.784 193.012 201.775 193.036 201.775C193.06 201.775 193.083 201.784 193.101 201.799C193.149 201.858 193.173 201.935 193.166 202.011V203.02C193.166 203.116 193.144 203.211 193.101 203.298C193.075 203.367 193.03 203.428 192.971 203.473L192.351 203.834C192.343 203.844 192.332 203.852 192.32 203.857C192.308 203.863 192.295 203.866 192.282 203.866C192.269 203.866 192.256 203.863 192.244 203.857C192.232 203.852 192.221 203.844 192.213 203.834C192.188 203.807 192.17 203.774 192.159 203.739C192.148 203.704 192.144 203.667 192.148 203.631V202.622C192.147 202.526 192.169 202.431 192.213 202.345C192.238 202.272 192.287 202.211 192.351 202.169L192.971 201.799ZM193.129 210.487C193.129 210.579 193.11 210.671 193.073 210.755C193.044 210.828 192.996 210.892 192.934 210.94L192.379 211.255C192.371 211.264 192.361 211.272 192.35 211.278C192.339 211.283 192.327 211.286 192.314 211.286C192.302 211.286 192.29 211.283 192.279 211.278C192.267 211.272 192.257 211.264 192.25 211.255C192.201 211.195 192.178 211.119 192.185 211.042V205.056C192.184 204.959 192.206 204.864 192.25 204.778C192.276 204.706 192.32 204.642 192.379 204.593L192.934 204.278C192.953 204.261 192.978 204.251 193.004 204.251C193.029 204.251 193.054 204.261 193.073 204.278C193.115 204.338 193.134 204.41 193.129 204.482V210.487Z" fill="#FAFAFA"/>
<path d="M197.995 207.664C197.995 207.76 197.976 207.854 197.94 207.942C197.914 208.014 197.865 208.076 197.801 208.118L197.246 208.442C197.229 208.458 197.205 208.468 197.181 208.468C197.157 208.468 197.134 208.458 197.116 208.442C197.068 208.382 197.045 208.305 197.052 208.229V204.972C197.08 204.587 197.01 204.202 196.848 203.852C196.719 203.621 196.515 203.584 196.228 203.75C195.942 203.943 195.73 204.227 195.627 204.555C195.472 204.992 195.397 205.453 195.405 205.916V209.182C195.404 209.277 195.385 209.371 195.349 209.459C195.327 209.536 195.277 209.601 195.21 209.644L194.664 209.959C194.656 209.969 194.645 209.977 194.633 209.982C194.621 209.987 194.608 209.99 194.595 209.99C194.582 209.99 194.569 209.987 194.557 209.982C194.545 209.977 194.534 209.969 194.526 209.959C194.483 209.9 194.463 209.828 194.47 209.755V203.769C194.469 203.674 194.488 203.579 194.526 203.491C194.548 203.415 194.598 203.349 194.664 203.306L195.21 202.992C195.219 202.982 195.23 202.974 195.242 202.969C195.254 202.963 195.267 202.96 195.28 202.96C195.293 202.96 195.306 202.963 195.318 202.969C195.33 202.974 195.34 202.982 195.349 202.992C195.391 203.055 195.41 203.129 195.405 203.205V203.491C195.526 203.209 195.675 202.94 195.849 202.686C196.001 202.453 196.207 202.259 196.45 202.122C196.661 201.968 196.923 201.902 197.181 201.937C197.284 201.963 197.379 202.01 197.462 202.075C197.545 202.141 197.613 202.223 197.662 202.316C197.797 202.567 197.884 202.839 197.921 203.121C197.971 203.489 197.996 203.86 197.995 204.232V207.664Z" fill="#FAFAFA"/>
<path d="M244.665 180.73L235.681 185.911L237.078 173.309C235.995 172.736 235.311 171.339 235.311 169.331C235.311 165.75 237.494 161.596 240.177 160.078C242.861 158.561 245.035 160.171 245.035 163.779C244.979 165.902 244.374 167.975 243.277 169.793L244.665 180.73Z" fill="#455A64"/>
<path d="M244.675 180.73L236.764 176.169L235.682 185.921L244.675 180.73Z" fill="#37474F"/>
<path d="M240.159 160.051C238.202 161.373 236.743 163.311 236.014 165.557L243.258 169.739C244.355 167.92 244.961 165.848 245.016 163.725C245.035 160.144 242.861 158.506 240.159 160.051Z" fill="#37474F"/>
<path d="M196.487 118.091C193.406 116.314 189.159 116.564 184.458 119.275C175.076 124.697 167.471 137.864 167.471 148.698C167.471 154.139 169.395 157.951 172.486 159.709L178.472 163.188C181.544 164.964 185.791 164.705 190.5 161.994C199.882 156.582 207.488 143.406 207.488 132.571C207.488 127.158 205.582 123.319 202.51 121.588" fill="#2061EC"/>
<path d="M190.492 122.763C181.11 128.185 173.504 141.361 173.504 152.186C173.504 163.012 181.11 167.416 190.492 161.994C199.874 156.572 207.489 143.405 207.479 132.571C207.47 121.736 199.865 117.35 190.492 122.763Z" fill="#2061EC"/>
<path d="M199.864 146.802V148.041C197.617 152.053 194.393 155.433 190.492 157.868C186.837 159.968 183.534 160.199 181.109 158.858V156.304C181.233 153.647 181.992 151.059 183.322 148.755C184.651 146.451 186.513 144.5 188.752 143.064L191.222 141.639C193.406 140.38 195.534 140.214 197.2 141.185C198.865 142.157 199.864 144.202 199.864 146.802Z" fill="#2061EC"/>
<path opacity="0.4" d="M196.487 118.091L202.501 121.588C199.429 119.803 195.182 120.053 190.473 122.764C184.329 126.317 178.944 133.191 175.965 140.556L169.941 137.068C172.93 129.666 178.269 122.828 184.449 119.275C189.168 116.574 193.415 116.314 196.487 118.091Z" fill="white"/>
<path opacity="0.2" d="M178.26 163.049L172.495 159.709C169.405 157.951 167.48 154.157 167.48 148.698L173.504 152.196C173.541 157.47 175.317 161.226 178.26 163.049Z" fill="black"/>
<path opacity="0.1" d="M169.96 137.067L175.984 140.556C174.44 144.243 173.611 148.19 173.541 152.186L167.518 148.689C167.592 144.696 168.421 140.752 169.96 137.067Z" fill="black"/>
<path d="M188.346 141.056C187.772 141.062 187.206 140.915 186.708 140.63C186.107 140.23 185.626 139.674 185.315 139.023C185.004 138.371 184.875 137.648 184.941 136.929C185.019 135.243 185.5 133.601 186.344 132.139C187.187 130.678 188.369 129.439 189.789 128.528C190.36 128.072 191.054 127.8 191.782 127.745C192.51 127.691 193.238 127.858 193.87 128.224C194.501 128.59 195.008 129.138 195.323 129.796C195.639 130.454 195.748 131.193 195.637 131.914C195.557 133.6 195.075 135.242 194.232 136.703C193.388 138.164 192.208 139.403 190.788 140.316C190.054 140.774 189.211 141.029 188.346 141.056Z" fill="white"/>
<path d="M197.2 141.175C195.534 140.204 193.406 140.37 191.222 141.629L188.752 143.054C186.512 144.491 184.649 146.444 183.32 148.749C181.99 151.055 181.232 153.645 181.109 156.303V158.866C183.534 160.208 186.837 159.977 190.492 157.876C194.393 155.442 197.617 152.062 199.864 148.05V146.81C199.864 144.201 198.902 142.156 197.2 141.175Z" fill="white"/>
<path d="M387.414 301.244C387.414 301.244 388.645 290.437 394.02 282.045C399.396 273.653 406.78 268.426 413.673 267.88C420.566 267.334 426.136 273.681 418.762 278.058C411.388 282.434 398.286 286.857 392.253 303.141L387.414 301.244Z" fill="#2061EC"/>
<path opacity="0.1" d="M387.414 301.244C387.414 301.244 388.645 290.437 394.02 282.045C399.396 273.653 406.78 268.426 413.673 267.88C420.566 267.334 426.136 273.681 418.762 278.058C411.388 282.434 398.286 286.857 392.253 303.141L387.414 301.244Z" fill="black"/>
<path d="M389.439 298.431H389.365C389.275 298.395 389.202 298.323 389.164 298.233C389.126 298.143 389.125 298.041 389.162 297.95C396.434 280.047 410.276 272.561 416.586 271.118C416.634 271.107 416.683 271.105 416.731 271.113C416.779 271.122 416.825 271.139 416.866 271.165C416.907 271.19 416.943 271.224 416.971 271.264C416.999 271.303 417.019 271.348 417.03 271.395C417.041 271.443 417.043 271.492 417.035 271.54C417.027 271.588 417.009 271.634 416.984 271.675C416.958 271.716 416.924 271.752 416.885 271.78C416.845 271.808 416.8 271.829 416.753 271.84C410.572 273.264 396.999 280.611 389.846 298.237C389.811 298.311 389.751 298.37 389.677 298.406C389.603 298.441 389.519 298.45 389.439 298.431Z" fill="white"/>
<path d="M426.248 298.644C425.628 300.05 424.092 300.791 422.667 301.364C421.242 301.938 419.688 302.558 418.91 303.89C417.356 306.573 419.91 310.367 418.244 312.967C417.852 313.49 417.358 313.929 416.792 314.257C416.226 314.584 415.6 314.794 414.95 314.873C413.886 315.067 412.804 315.067 411.73 315.16C411.216 315.153 410.703 315.113 410.194 315.039C408.699 314.706 407.136 314.872 405.744 315.511C403.607 316.714 402.968 319.407 401.654 321.489C400.852 322.714 399.794 323.752 398.553 324.532C397.312 325.311 395.918 325.813 394.465 326.004C393.54 326.124 391.689 326.3 390.764 325.754C390.692 325.718 390.623 325.675 390.56 325.624C390.422 325.476 390.255 325.282 390.181 325.18C390.176 325.159 390.176 325.137 390.181 325.116C389.802 323.718 390.422 322.275 390.449 320.832V320.573C390.385 318.898 390.338 317.232 390.301 315.567C390.221 312.483 390.19 309.399 390.209 306.314C390.209 304.316 389.987 302.132 390.838 300.254C391.763 298.181 394.095 298.135 394.974 296.109C395.326 295.294 395.511 294.434 395.853 293.611C396.382 292.413 397.229 291.384 398.303 290.635C399.376 289.887 400.635 289.447 401.941 289.364C406.003 289.16 409.639 292.445 413.701 292.139C414.747 292.056 415.774 291.732 416.81 291.547C420.095 290.927 423.898 291.862 425.748 294.647C426.154 295.22 426.412 295.885 426.499 296.583C426.587 297.28 426.5 297.988 426.248 298.644Z" fill="#2061EC"/>
<path d="M389.773 318.704C389.686 318.678 389.612 318.62 389.567 318.54C389.522 318.461 389.51 318.367 389.533 318.279C395.14 297.238 417.291 294.222 422.5 294.574C422.546 294.576 422.59 294.587 422.632 294.607C422.673 294.627 422.71 294.656 422.74 294.69C422.77 294.725 422.793 294.765 422.808 294.808C422.822 294.852 422.827 294.898 422.824 294.944C422.814 295.034 422.771 295.117 422.702 295.175C422.633 295.234 422.544 295.264 422.453 295.258C417.374 294.897 395.686 297.868 390.199 318.464C390.173 318.551 390.114 318.625 390.035 318.67C389.955 318.715 389.862 318.727 389.773 318.704Z" fill="white"/>
<path d="M414.413 308.045C414.342 308.036 414.277 308.003 414.228 307.953C412.18 306.178 409.765 304.877 407.157 304.143C404.548 303.409 401.81 303.26 399.137 303.706C399.046 303.714 398.957 303.688 398.885 303.634C398.813 303.579 398.764 303.499 398.748 303.41C398.735 303.319 398.757 303.227 398.811 303.153C398.864 303.078 398.945 303.028 399.035 303.012C401.823 302.548 404.678 302.706 407.398 303.476C410.117 304.245 412.633 305.607 414.764 307.462C414.797 307.494 414.823 307.533 414.841 307.575C414.858 307.617 414.868 307.662 414.868 307.708C414.868 307.753 414.858 307.799 414.841 307.841C414.823 307.883 414.797 307.921 414.764 307.953C414.722 308.003 414.666 308.039 414.603 308.055C414.54 308.072 414.474 308.068 414.413 308.045Z" fill="white"/>
<path d="M336.498 47.1223L339.44 48.2511V41.7743C339.44 36.6299 343.539 35.3993 347.989 37.9715C352.449 40.5437 356.058 46.7892 356.058 51.9337V52.8589C356.678 52.6694 357.333 52.6226 357.974 52.7219C358.615 52.8213 359.225 53.0642 359.759 53.4326C361.449 54.5345 362.855 56.0196 363.863 57.7672C364.871 59.5148 365.452 61.4755 365.56 63.4901V63.9158L369.668 66.2844C370.78 67.0099 371.705 67.9868 372.368 69.1361C373.032 70.2854 373.416 71.5748 373.489 72.9C373.489 75.3427 371.778 76.3327 369.668 75.1114L336.498 55.9493C335.385 55.2255 334.46 54.2488 333.798 53.099C333.135 51.9492 332.754 50.6589 332.686 49.3337C332.686 46.9003 334.379 45.9102 336.498 47.1223Z" fill="#E6E6E6"/>
<path d="M375.904 41.9961L381.243 45.0772C381.214 44.8439 381.198 44.6091 381.197 44.374V42.8288C381.197 40.053 383.121 38.9612 385.508 40.3399C386.534 40.9679 387.412 41.8107 388.081 42.8103C388.469 39.3498 391.19 38.0637 394.483 39.9605C396.366 41.1853 397.933 42.8363 399.058 44.7798C400.184 46.7233 400.835 48.9046 400.96 51.1469V53.46C400.984 54.3843 400.797 55.3018 400.414 56.1433L404.856 58.697C405.548 59.156 406.123 59.771 406.534 60.4925C406.945 61.214 407.182 62.0219 407.224 62.8514C407.224 64.3781 406.151 64.998 404.828 64.2393L375.904 47.5846C375.205 47.1289 374.623 46.514 374.206 45.7904C373.79 45.0667 373.551 44.2548 373.508 43.421C373.508 41.8573 374.581 41.2374 375.904 41.9961Z" fill="#E6E6E6"/>
<path d="M355.235 182.423C351.349 188.993 347.611 194.701 344.984 197.44C339.996 199.753 328.283 203.325 323.703 203.917C322.898 204.019 322.084 203.829 321.408 203.38C319.604 202.196 318.207 202.002 316.31 201.345C314.82 200.836 314.191 200.123 313.913 200.419C313.627 200.756 313.483 201.19 313.512 201.631C313.541 202.072 313.742 202.484 314.071 202.779C314.782 203.455 315.571 204.045 316.421 204.537C314.389 205.041 312.27 205.079 310.222 204.648C306.252 203.602 304.383 205.508 307.066 209.82C307.992 211.356 311.804 213.826 319.465 213.16C322.198 213.013 324.92 212.704 327.616 212.235C334.963 210.662 343.133 209.145 348.157 207.609C350.026 206.874 351.699 205.715 353.043 204.222C361.49 194.59 364.294 187.725 367.995 181.489L367.68 171.311C361.684 171.107 358.483 176.927 355.235 182.423Z" fill="#FFA8A7"/>
<path d="M368.707 171.107C366.968 170.863 365.196 171.098 363.581 171.788C361.967 172.478 360.572 173.596 359.547 175.021C355.439 180.286 348.166 192.925 348.166 192.925C348.166 192.925 350.544 199.263 356.965 200.327L367.282 186.393C367.282 186.393 372.167 176.715 368.707 171.107Z" fill="#455A64"/>
<path d="M391.014 313.171H384.287V325.162H391.014V313.171Z" fill="#FFA8A7"/>
<path d="M367.698 312.532L360.981 312.773L360.639 300.078L367.698 299.838V312.532Z" fill="#FFA8A7"/>
<path d="M391.959 209.366C391.959 216.046 390.979 269.869 390.979 269.869C391.127 271.793 392.829 275.346 392.487 282.739C391.978 292.778 391.302 319.166 391.302 319.166C390.148 319.757 388.874 320.078 387.577 320.103C386.28 320.129 384.994 319.859 383.817 319.314C383.817 319.314 378.358 282.304 377.155 272.395C376.1 263.706 373.399 234.949 373.399 234.949L369.762 268.943C370.533 272.591 370.813 276.325 370.595 280.047C370.281 284.673 368.116 308.618 368.116 308.618C366.953 309.304 365.65 309.716 364.306 309.824C362.961 309.931 361.609 309.731 360.353 309.238C360.353 309.238 356.522 273.153 356.448 268.916C356.355 264.104 358.687 209.311 358.687 209.311L391.959 209.366Z" fill="#37474F"/>
<path d="M384.289 321.702V320.703C383.641 320.99 382.152 326.93 379.478 329.465C377.359 331.482 374.472 333.805 373.732 336.053C372.991 338.302 377.757 339.68 379.746 339.319C382.04 338.894 386.038 337.2 387.037 335.618C388.036 334.036 388.508 331.741 389.322 330.594C390.136 329.447 392.015 328.17 392.45 326.838C392.585 325.591 392.456 324.33 392.07 323.137C391.756 321.897 391.423 320.537 391.016 320.657V321.416C390.067 322.194 388.875 322.613 387.648 322.6C386.667 322.683 384.28 322.48 384.289 321.702Z" fill="#263238"/>
<path d="M360.907 310.608C360.555 310.608 360.269 311.135 359.501 312.005C358.359 313.206 357.023 314.207 355.55 314.966C353.033 316.28 348.148 318.297 345.918 319.342C344.53 319.99 344.595 321.729 346.029 322.719C347.463 323.709 350.914 324.422 355.059 323.46C357.317 322.932 360.259 320.758 362.128 320.878C363.997 320.998 367.467 320.961 368.846 319.953C370.224 318.944 369.669 316.853 369.281 315.049C368.855 313.069 368.355 309.988 367.698 310.127V310.821C366.893 312.097 362.721 312.616 360.944 311.681L360.907 310.608Z" fill="#263238"/>
<path d="M373.397 234.95C369.898 233.805 366.699 231.892 364.033 229.353C364.033 229.353 365.884 232.878 371.213 236.162L370.066 266.52L373.397 234.95Z" fill="#263238"/>
<path d="M388.202 172.088C388.202 172.088 393.754 173.365 393.356 183.395L392.2 199.356V223.32C387.259 228.927 365.367 228.52 357.826 222.876C357.826 222.876 358.677 194.516 359.186 183.598C359.547 175.845 361.333 171.94 368.957 171.089L378.33 171.496L388.202 172.088Z" fill="#2061EC"/>
<path d="M381.133 151.251C381.165 152.594 380.931 153.929 380.444 155.181C379.957 156.433 379.227 157.576 378.297 158.545C377.366 159.513 376.253 160.288 375.021 160.824C373.79 161.36 372.465 161.648 371.122 161.669C365.57 161.669 362.313 156.876 361.11 151.251C358.89 140.953 365.589 140.823 371.122 140.823C373.832 140.879 376.409 142.009 378.286 143.964C380.163 145.92 381.187 148.541 381.133 151.251Z" fill="#263238"/>
<path d="M386.241 155.461C386.241 155.461 384.705 162.974 384.085 164.214C383.695 164.96 383.032 165.527 382.234 165.796L382.345 160.513L386.241 155.461Z" fill="#263238"/>
<path d="M384.306 144.701C384.306 144.701 385.407 144.423 386.582 146.255C387.581 147.819 387.813 151.335 386.24 155.508L383.344 155.859L384.306 144.701Z" fill="#263238"/>
<path d="M385.371 146.227L388.924 146.292C388.948 146.062 388.925 145.83 388.855 145.61C388.786 145.39 388.671 145.186 388.519 145.013C388.367 144.839 388.181 144.698 387.972 144.6C387.763 144.502 387.536 144.448 387.305 144.441C386.819 144.448 386.353 144.635 385.996 144.964C385.639 145.294 385.417 145.743 385.371 146.227Z" fill="#263238"/>
<path d="M385.805 145.385L388.433 142.859C388.282 142.68 388.095 142.535 387.884 142.432C387.674 142.33 387.445 142.272 387.211 142.262C386.977 142.253 386.744 142.292 386.526 142.377C386.307 142.462 386.109 142.591 385.944 142.757C385.595 143.098 385.388 143.557 385.362 144.044C385.336 144.531 385.495 145.009 385.805 145.385Z" fill="#263238"/>
<path d="M382.475 155.813C383.058 156.174 383.881 155.017 384.603 154.231C385.324 153.444 387.564 152.723 388.729 155.276C389.895 157.83 387.906 160.356 386.24 161.189C383.252 162.669 382.308 160.513 382.308 160.513L382.058 172.412C377.858 178.889 368.327 178.685 371.76 172.098V168.48C370.348 168.715 368.914 168.789 367.485 168.702C365.154 168.332 363.692 166.416 362.979 163.789C361.851 159.57 361.416 156.165 362.378 147.865C363.433 138.779 373.592 138.677 379.033 142.314C384.473 145.95 382.475 155.813 382.475 155.813Z" fill="#FFA8A7"/>
<path d="M369.817 146.449C372.241 146.208 374.638 145.709 377.071 145.524C377.596 145.46 378.127 145.485 378.644 145.598C380.494 146.107 380.272 148.272 380.568 149.78C381.077 152.389 381.494 156.802 382.475 156.821C382.771 156.821 383.881 154.906 384.603 154.221C384.999 153.631 385.224 152.942 385.25 152.232C385.435 151.158 385.528 150.057 385.611 148.966C385.685 148.04 385.778 147.115 385.778 146.19C385.82 145.144 385.736 144.097 385.528 143.072C385.296 142.199 384.851 141.398 384.232 140.74L384.047 140.536C382.828 139.261 381.348 138.264 379.708 137.613C377.349 136.729 374.874 136.19 372.361 136.012C369.852 135.834 367.353 135.525 364.876 135.087C364.734 135.045 364.583 135.045 364.441 135.087C364.341 135.142 364.256 135.222 364.194 135.319C364.133 135.416 364.097 135.527 364.09 135.642C363.988 136.217 364.052 136.809 364.273 137.349C364.494 137.89 364.863 138.356 365.339 138.695C363.664 138.825 361.739 137.955 360.13 137.511C359.999 137.456 359.859 137.427 359.718 137.427C359.576 137.427 359.436 137.456 359.306 137.511C359.145 137.624 359.03 137.791 358.982 137.983C358.865 138.417 358.849 138.873 358.936 139.315C359.083 140.654 359.581 141.931 360.379 143.016C361.626 144.64 363.388 145.791 365.376 146.282C366.839 146.564 368.337 146.621 369.817 146.449Z" fill="#263238"/>
<path d="M371.77 168.479C371.77 168.479 376.969 167.387 378.783 166.379C379.863 165.788 380.74 164.885 381.3 163.788C381.027 164.89 380.539 165.928 379.866 166.841C378.542 168.618 371.77 169.913 371.77 169.913V168.479Z" fill="#F28F8F"/>
<path d="M373.018 154.453C373.008 154.738 373.112 155.016 373.306 155.226C373.5 155.436 373.769 155.56 374.055 155.572C374.281 155.591 374.508 155.541 374.706 155.428C374.903 155.315 375.062 155.146 375.162 154.941C375.262 154.737 375.297 154.507 375.264 154.282C375.23 154.057 375.13 153.847 374.975 153.68C374.821 153.513 374.62 153.397 374.398 153.347C374.176 153.296 373.944 153.314 373.733 153.397C373.521 153.481 373.34 153.626 373.212 153.814C373.085 154.003 373.017 154.225 373.018 154.453Z" fill="#263238"/>
<path d="M374.684 149.965L376.913 151.251C377.076 150.934 377.113 150.567 377.016 150.224C376.92 149.881 376.699 149.587 376.395 149.4C376.247 149.317 376.084 149.266 375.915 149.25C375.746 149.233 375.576 149.252 375.415 149.306C375.254 149.359 375.106 149.445 374.98 149.558C374.854 149.672 374.753 149.81 374.684 149.965Z" fill="#263238"/>
<path d="M372.233 161.956L369.855 162.881C369.903 163.044 369.984 163.196 370.093 163.326C370.202 163.457 370.336 163.564 370.488 163.64C370.64 163.716 370.806 163.761 370.976 163.77C371.145 163.78 371.315 163.754 371.475 163.696C371.798 163.556 372.057 163.299 372.198 162.976C372.339 162.653 372.351 162.288 372.233 161.956Z" fill="#F28F8F"/>
<path d="M363.452 150.918L365.488 149.29C365.396 149.147 365.276 149.026 365.135 148.933C364.994 148.841 364.835 148.779 364.668 148.752C364.501 148.725 364.331 148.733 364.167 148.776C364.004 148.82 363.852 148.897 363.72 149.003C363.448 149.233 363.271 149.556 363.221 149.909C363.172 150.262 363.254 150.621 363.452 150.918Z" fill="#263238"/>
<path d="M364.349 154.147C364.365 154.35 364.44 154.543 364.564 154.704C364.688 154.864 364.857 154.985 365.048 155.052C365.24 155.118 365.447 155.128 365.644 155.078C365.842 155.029 366.02 154.924 366.158 154.775C366.296 154.626 366.388 154.44 366.422 154.239C366.456 154.039 366.431 153.833 366.35 153.647C366.269 153.461 366.135 153.302 365.965 153.191C365.796 153.079 365.597 153.019 365.394 153.019C365.251 153.023 365.111 153.056 364.98 153.116C364.85 153.175 364.733 153.26 364.636 153.365C364.539 153.47 364.463 153.593 364.414 153.727C364.365 153.862 364.342 154.004 364.349 154.147Z" fill="#263238"/>
<path d="M369.929 153.277L369.808 159.856L366.07 159.005L369.929 153.277Z" fill="#F28F8F"/>
<path d="M281.16 208.377L286.962 205.027L289.256 202.242L283.464 205.592L281.16 208.377Z" fill="#2061EC"/>
<path opacity="0.4" d="M281.16 208.377L286.962 205.027L289.256 202.242L283.464 205.592L281.16 208.377Z" fill="black"/>
<path d="M296.936 217.481L302.737 214.132L307.576 209.848L301.784 213.188L296.936 217.481Z" fill="#2061EC"/>
<path opacity="0.4" d="M296.936 217.481L302.737 214.132L307.576 209.848L301.784 213.188L296.936 217.481Z" fill="black"/>
<path d="M346.214 229.037C347.586 230.876 348.416 233.062 348.611 235.347C347.245 233.505 346.416 231.321 346.214 229.037ZM359.695 229.213C357.743 215.935 350.609 202.806 342.115 197.893C338.035 195.534 334.26 195.45 331.234 197.218L325.775 200.363L325.47 200.548C325.227 200.682 324.992 200.831 324.767 200.993C324.318 201.301 323.897 201.648 323.509 202.029L323.324 202.205C323.157 202.371 322.981 202.565 322.824 202.751C322.667 202.936 322.426 203.222 322.241 203.472C321.848 203.989 321.493 204.533 321.177 205.101C321.01 205.388 320.853 205.693 320.705 206.026L273.026 178.509L267.234 181.849V185.55L267.725 185.828L268.187 186.096V186.836L267.262 187.382V189.529L274.266 204.333L281.187 208.339L283.491 205.563L289.598 209.218L293.105 215.223L296.972 217.453L301.811 213.16L307.751 216.592L309.75 224.836L319.733 230.61C320.227 232.708 320.845 234.775 321.584 236.8C321.649 237.004 321.732 237.216 321.815 237.448C325.128 246.145 330.392 253.593 336.333 257.026C337.045 257.448 337.79 257.811 338.562 258.109C338.971 258.271 339.388 258.41 339.812 258.525C340.182 258.624 340.552 258.707 340.922 258.775C342.09 258.988 343.288 258.988 344.456 258.775L344.938 258.655C345.168 258.608 345.393 258.543 345.613 258.46L346.131 258.257C346.314 258.191 346.491 258.107 346.659 258.007C346.83 257.933 346.996 257.85 347.158 257.757L347.399 257.609C347.442 257.595 347.483 257.573 347.519 257.544C348.842 256.786 352.099 254.898 352.987 254.398C357.391 251.845 360.241 245.386 360.241 236.254C360.234 233.897 360.051 231.543 359.695 229.213Z" fill="#2061EC"/>
<path d="M344.521 240.243C342.226 238.92 340.376 234.996 340.376 231.48C340.376 227.964 342.226 226.179 344.521 227.493C346.815 228.806 348.657 232.739 348.657 236.264C348.657 239.789 346.806 241.566 344.521 240.243ZM353.894 232.554C351.951 219.286 344.817 206.147 336.314 201.243C332.372 198.967 328.727 198.8 325.766 200.364L325.46 200.549C325.217 200.683 324.982 200.831 324.757 200.993C324.309 201.302 323.888 201.649 323.499 202.029L323.314 202.205C323.147 202.372 322.971 202.566 322.814 202.751C322.657 202.936 322.416 203.223 322.231 203.473C321.838 203.99 321.483 204.534 321.167 205.101C321.001 205.388 320.843 205.694 320.695 206.027C319.833 207.815 319.21 209.71 318.845 211.661L267.225 181.85V185.551L267.715 185.828L268.178 186.097V186.837L267.252 187.383V189.529L274.257 204.333L281.177 208.34L283.481 205.564L289.588 209.219L293.095 215.224L296.962 217.454L301.801 213.16L307.742 216.593L309.74 224.837L319.733 230.611C320.226 232.709 320.844 234.776 321.584 236.801C321.648 237.004 321.732 237.217 321.815 237.448C325.127 246.146 330.392 253.594 336.332 257.027C337.044 257.449 337.79 257.811 338.562 258.109C338.97 258.272 339.387 258.411 339.811 258.526C340.181 258.624 340.551 258.708 340.921 258.776C342.09 258.989 343.287 258.989 344.456 258.776L344.937 258.655C345.167 258.609 345.393 258.544 345.612 258.461L346.131 258.257C346.314 258.191 346.491 258.108 346.658 258.008C346.829 257.934 346.996 257.85 347.158 257.758L347.398 257.61C347.442 257.595 347.483 257.573 347.519 257.545C351.738 254.88 354.449 248.514 354.449 239.604C354.433 237.244 354.248 234.888 353.894 232.554Z" fill="#2061EC"/>
<path opacity="0.4" d="M348.656 236.254C348.656 239.78 346.806 241.565 344.52 240.242C342.235 238.919 340.375 235.005 340.375 231.48C340.375 227.955 342.226 226.169 344.52 227.492C345.181 227.894 345.756 228.423 346.213 229.047C346.412 231.331 347.242 233.516 348.61 235.357C348.644 235.655 348.659 235.955 348.656 236.254Z" fill="black"/>
<path opacity="0.4" d="M360.222 236.245C360.222 245.378 357.372 251.836 352.968 254.39C352.043 254.889 348.823 256.777 347.5 257.536C351.719 254.871 354.43 248.505 354.43 239.595C354.42 237.238 354.241 234.885 353.893 232.554C351.95 219.285 344.817 206.147 336.314 201.243C332.372 198.967 328.726 198.8 325.766 200.364L331.225 197.218C334.25 195.451 338.025 195.534 342.106 197.893C350.609 202.807 357.743 215.936 359.686 229.213C360.038 231.541 360.217 233.891 360.222 236.245Z" fill="white"/>
<path d="M354.43 239.576C354.43 248.486 351.719 254.852 347.5 257.517C348.823 256.758 352.08 254.871 352.968 254.371C357.373 251.817 360.222 245.359 360.222 236.227C360.222 235.894 360.222 235.551 360.222 235.209L354.43 238.558C354.421 238.919 354.43 239.252 354.43 239.576Z" fill="#2061EC"/>
<path opacity="0.1" d="M354.43 239.576C354.43 248.486 351.719 254.852 347.5 257.517C348.823 256.758 352.08 254.871 352.968 254.371C357.373 251.817 360.222 245.359 360.222 236.227C360.222 235.894 360.222 235.551 360.222 235.209L354.43 238.558C354.421 238.919 354.43 239.252 354.43 239.576Z" fill="black"/>
<path opacity="0.15" d="M319.067 215.445V217.324L267.234 187.401L268.187 186.846V186.068L319.067 215.445Z" fill="black"/>
<path opacity="0.15" d="M319.067 216.222V217.323L267.234 187.4L268.187 186.845V186.836L319.067 216.222Z" fill="black"/>
<path opacity="0.15" d="M341.606 254.38C339.642 254.329 337.726 253.758 336.055 252.724C327.607 247.848 320.732 233.34 320.732 220.386C320.732 212.827 323.018 207.183 327.006 204.879C329.781 203.269 333.066 203.473 336.517 205.462C344.956 210.338 351.83 224.892 351.83 237.846C351.83 245.396 349.545 251.049 345.557 253.344C344.354 254.031 342.991 254.388 341.606 254.38ZM331.012 204.74C329.779 204.733 328.566 205.053 327.496 205.666C323.86 207.766 321.685 213.271 321.685 220.377C321.685 233.035 328.347 247.21 336.545 251.91C339.682 253.76 342.652 253.927 345.122 252.502C348.759 250.402 350.933 244.906 350.933 237.8C350.933 225.133 344.271 210.967 336.082 206.258C334.552 205.327 332.803 204.816 331.012 204.777V204.74Z" fill="black"/>
<path opacity="0.4" d="M320.658 206.007C319.796 207.796 319.173 209.691 318.808 211.642L267.188 181.83L272.98 178.49L320.658 206.007Z" fill="white"/>
<path d="M387.747 208.904C390.449 203.787 393.539 192.296 395.075 186.494C397.259 178.259 393.725 173.078 389.709 172.865C387.201 173.254 378.939 203.297 378.939 203.297C378.014 204.028 365.458 210.403 361.424 212.004C360.702 212.277 359.906 212.277 359.185 212.004C357.251 211.3 355.928 211.43 354.031 211.245C352.541 211.097 351.792 210.569 351.598 210.884C351.421 211.275 351.398 211.717 351.534 212.124C351.669 212.53 351.953 212.87 352.329 213.077C353.145 213.553 354.015 213.931 354.919 214.206C353.298 214.698 351.608 214.926 349.914 214.881C346.028 214.798 344.63 216.482 347.647 220.433C349.497 222.894 352.56 223.671 359.397 221.312C361.359 220.627 364.024 219.304 366.513 218.406C371.639 216.556 372.99 216.334 376.894 215.011C382.584 213.086 386.545 211.18 387.747 208.904Z" fill="#FFA8A7"/>
<path d="M388.202 172.088C390.562 172.412 392.829 172.939 394.226 174.864C395.623 176.788 396.742 179.49 395.373 186.846C394.324 192.019 392.921 197.114 391.172 202.094C391.172 202.094 385.676 204.444 379.838 198.486L383.854 182.96C383.854 182.96 384.501 172.865 388.202 172.088Z" fill="#455A64"/>
</svg>
