<svg width="191" height="40" viewBox="0 0 191 40" fill="none" xmlns="http://www.w3.org/2000/svg">
<path d="M28.5781 1.97656C28.1953 2.85156 27.8535 3.61719 27.5527 4.27344C27.252 4.92969 26.9922 5.49023 26.7734 5.95508C26.5273 6.47461 26.3223 6.93945 26.1582 7.34961C26.0215 7.65039 25.8438 8.06055 25.625 8.58008C25.4062 9.04492 25.1328 9.66016 24.8047 10.4258C24.5039 11.1641 24.1074 12.1211 23.6152 13.2969C23.3691 12.2852 23.0684 11.3965 22.7129 10.6309C22.3574 9.86523 21.9746 9.19531 21.5645 8.62109C21.1543 8.04688 20.7168 7.58203 20.252 7.22656C19.8145 6.84375 19.377 6.5293 18.9395 6.2832C17.9277 5.73633 16.8613 5.43555 15.7402 5.38086C14.2637 5.46289 13.1016 5.70898 12.2539 6.11914C11.4336 6.50195 10.832 6.95313 10.4492 7.47266C10.0664 7.96484 9.86133 8.48438 9.83398 9.03125C9.80664 9.55078 9.875 9.98828 10.0391 10.3438C10.1758 10.6719 10.6543 11.0547 11.4746 11.4922C12.3223 11.9297 13.334 12.4355 14.5098 13.0098C15.7129 13.5566 16.998 14.1855 18.3652 14.8965C19.7324 15.5801 20.9902 16.3457 22.1387 17.1934C23.3145 18.0137 24.2988 18.916 25.0918 19.9004C25.9121 20.8574 26.3633 21.8828 26.4453 22.9766C26.5273 24.3711 26.5137 25.6289 26.4043 26.75C26.2949 27.8711 25.9121 28.8281 25.2559 29.6211C24.5996 30.4141 23.5742 31.043 22.1797 31.5078C20.8125 31.9727 18.9121 32.2598 16.4785 32.3691C13.9629 32.4785 11.8984 32.3418 10.2852 31.959C8.67188 31.5762 7.35938 31.0566 6.34766 30.4004C5.36328 29.7441 4.625 29.0195 4.13281 28.2266C3.66797 27.4336 3.32617 26.6816 3.10742 25.9707C2.88867 25.2324 2.73828 24.6035 2.65625 24.084C2.57422 23.5371 2.4375 23.209 2.24609 23.0996C2.02734 22.9629 1.80859 22.8398 1.58984 22.7305C1.39844 22.6211 1.19336 22.5254 0.974609 22.4434C0.755859 22.334 0.537109 22.2383 0.318359 22.1562L12.2539 20.2285C11.5703 20.7754 11.0371 21.2812 10.6543 21.7461C10.2988 22.2109 10.0254 22.6211 9.83398 22.9766C9.61523 23.3867 9.46484 23.7695 9.38281 24.125C9.32812 24.5078 9.45117 24.9863 9.75195 25.5605C10.0527 26.1348 10.4629 26.6953 10.9824 27.2422C11.5293 27.7617 12.1582 28.1992 12.8691 28.5547C13.5801 28.9102 14.3184 29.0605 15.084 29.0059C16.041 28.9238 16.8203 28.6914 17.4219 28.3086C18.0234 27.8984 18.4746 27.3926 18.7754 26.791C19.1035 26.1895 19.2949 25.5332 19.3496 24.8223C19.4043 24.1113 19.3359 23.4141 19.1445 22.7305C18.9805 22.0195 18.707 21.3633 18.3242 20.7617C17.9414 20.1328 17.4902 19.6133 16.9707 19.2031C16.5059 18.875 15.7812 18.5605 14.7969 18.2598C13.8398 17.959 12.7598 17.6309 11.5566 17.2754C10.3809 16.9199 9.16406 16.5098 7.90625 16.0449C6.67578 15.5801 5.55469 15.0059 4.54297 14.3223C3.55859 13.6387 2.76562 12.832 2.16406 11.9023C1.58984 10.9727 1.37109 9.85156 1.50781 8.53906C1.61719 7.41797 1.97266 6.48828 2.57422 5.75C3.20312 4.98438 3.98242 4.38281 4.91211 3.94531C5.86914 3.48047 6.92188 3.13867 8.07031 2.91992C9.24609 2.70117 10.4355 2.57812 11.6387 2.55078C12.8691 2.49609 14.0723 2.50977 15.248 2.5918C16.4512 2.67383 17.5312 2.76953 18.4883 2.87891C19.4453 2.98828 20.252 3.09766 20.9082 3.20703C21.5918 3.28906 22.0156 3.34375 22.1797 3.37109C22.8906 3.42578 23.6016 3.41211 24.3125 3.33008C24.9414 3.27539 25.625 3.15234 26.3633 2.96094C27.1289 2.74219 27.8672 2.41406 28.5781 1.97656ZM28.7832 0.910156C29.4121 1.01953 29.9863 1.10156 30.5059 1.15625C31.0254 1.18359 31.4629 1.21094 31.8184 1.23828C32.2285 1.26562 32.584 1.2793 32.8848 1.2793C33.2949 1.25195 33.7734 1.21094 34.3203 1.15625C34.7852 1.10156 35.3457 1.0332 36.002 0.951172C36.6855 0.869141 37.4648 0.759766 38.3398 0.623047C37.9297 0.841797 37.5879 1.06055 37.3145 1.2793C37.041 1.4707 36.8223 1.67578 36.6582 1.89453C36.4668 2.14062 36.3164 2.37305 36.207 2.5918C36.0703 2.94727 35.9199 3.68555 35.7559 4.80664C35.5918 5.76367 35.3867 7.18555 35.1406 9.07227C34.9219 10.959 34.6348 13.5156 34.2793 16.7422C35.2637 15.7578 36.1934 15.0195 37.0684 14.5273C37.9707 14.0078 38.7637 13.6387 39.4473 13.4199C40.2402 13.1738 40.9785 13.0508 41.6621 13.0508C42.5098 13.1328 43.3711 13.4062 44.2461 13.8711C45.1484 14.3086 45.9824 14.8281 46.748 15.4297C47.541 16.0312 48.2246 16.6738 48.7988 17.3574C49.4004 18.041 49.8242 18.6426 50.0703 19.1621C50.2344 19.5176 50.3164 19.9824 50.3164 20.5566C50.3164 21.1035 50.2617 21.7051 50.1523 22.3613C50.043 23.0176 49.8926 23.6875 49.7012 24.3711C49.5098 25.0547 49.3184 25.6973 49.127 26.2988C48.9629 26.9004 48.8125 27.4336 48.6758 27.8984C48.5391 28.3359 48.457 28.6504 48.4297 28.8418C48.375 29.252 48.4023 29.6484 48.5117 30.0312C48.5938 30.3594 48.7578 30.7148 49.0039 31.0977C49.25 31.4531 49.6191 31.7539 50.1113 32C49.7285 31.9453 49.3184 31.9043 48.8809 31.877C48.4707 31.8223 48.0742 31.7812 47.6914 31.7539C47.2539 31.7266 46.8164 31.7129 46.3789 31.7129H44.9023C44.4375 31.7129 43.9043 31.7266 43.3027 31.7539C42.7012 31.7539 42.0449 31.7676 41.334 31.7949C41.7168 31.6582 42.0449 31.4805 42.3184 31.2617C42.5918 31.0156 42.8242 30.7832 43.0156 30.5645C43.2344 30.3184 43.4258 30.0586 43.5898 29.7852C43.6992 29.5664 43.8359 29.1562 44 28.5547C44.1641 27.9258 44.3145 27.2148 44.4512 26.4219C44.5879 25.6016 44.6836 24.7402 44.7383 23.8379C44.8203 22.9355 44.834 22.0742 44.7793 21.2539C44.752 20.4062 44.6289 19.6543 44.4102 18.998C44.2188 18.3418 43.918 17.8633 43.5078 17.5625C42.2773 16.6328 41.1562 16.1816 40.1445 16.209C39.1602 16.209 38.2168 16.6055 37.3145 17.3984C36.9863 17.6992 36.6719 18 36.3711 18.3008C36.0977 18.5742 35.7969 18.9023 35.4688 19.2852C35.1406 19.6406 34.8398 20.0098 34.5664 20.3926C34.5664 20.8027 34.5801 21.2539 34.6074 21.7461C34.6348 22.2383 34.6621 22.7168 34.6895 23.1816C34.7168 23.7012 34.7578 24.2207 34.8125 24.7402C34.8672 25.5332 34.9492 26.3125 35.0586 27.0781C35.1406 27.7344 35.25 28.459 35.3867 29.252C35.5234 30.0176 35.7012 30.7148 35.9199 31.3438C35.5645 31.2891 35.1953 31.2754 34.8125 31.3027C34.4297 31.3027 34.0605 31.3027 33.7051 31.3027C33.2949 31.3301 32.8984 31.3438 32.5156 31.3438C32.1602 31.3711 31.791 31.4121 31.4082 31.4668C31.0801 31.5215 30.7246 31.5762 30.3418 31.6309C29.959 31.6582 29.5898 31.7129 29.2344 31.7949C29.5625 31.166 29.8359 30.5508 30.0547 29.9492C30.2734 29.3203 30.4512 28.7734 30.5879 28.3086C30.752 27.7617 30.8887 27.2285 30.998 26.709C31.0801 26.2988 31.1348 25.5195 31.1621 24.3711C31.2168 23.1953 31.2578 21.8555 31.2852 20.3516C31.3125 18.8203 31.3262 17.207 31.3262 15.5117C31.3262 13.8164 31.3125 12.2031 31.2852 10.6719C31.2578 9.14062 31.2031 7.80078 31.1211 6.65234C31.0664 5.50391 30.998 4.71094 30.916 4.27344C30.8066 3.83594 30.6562 3.39844 30.4648 2.96094C30.3008 2.57812 30.082 2.20898 29.8086 1.85352C29.5352 1.4707 29.1934 1.15625 28.7832 0.910156ZM63.3594 13.625C64.0703 13.625 64.8086 13.7617 65.5742 14.0352C66.3398 14.2812 67.0781 14.6094 67.7891 15.0195C68.5 15.4023 69.1426 15.8262 69.7168 16.291C70.3184 16.7285 70.8105 17.1523 71.1934 17.5625C71.877 18.3008 72.3418 19.2988 72.5879 20.5566C72.8613 21.7871 72.916 23.0586 72.752 24.3711C72.5879 25.6562 72.2051 26.873 71.6035 28.0215C71.002 29.1699 70.168 30.0176 69.1016 30.5645C68.3359 30.9473 67.584 31.248 66.8457 31.4668C66.1074 31.6855 65.3965 31.8496 64.7129 31.959C64.0293 32.0684 63.3867 32.123 62.7852 32.123C62.1836 32.123 61.6641 32.1094 61.2266 32.082C60.4062 32.0273 59.5449 31.7402 58.6426 31.2207C57.7676 30.7012 56.9336 30.0586 56.1406 29.293C55.375 28.5273 54.7188 27.6934 54.1719 26.791C53.625 25.8613 53.2969 24.9863 53.1875 24.166C53.0234 23.0449 52.9961 21.8691 53.1055 20.6387C53.2148 19.4082 53.6113 18.2734 54.2949 17.2344C55.0059 16.1953 56.0723 15.334 57.4941 14.6504C58.9434 13.9668 60.8984 13.625 63.3594 13.625ZM62.0059 29.5391C62.3066 29.5938 62.7168 29.5254 63.2363 29.334C63.7559 29.1152 64.2617 28.7734 64.7539 28.3086C65.2734 27.8438 65.7246 27.2559 66.1074 26.5449C66.5176 25.8066 66.7637 24.918 66.8457 23.8789C66.9277 22.8672 66.9277 21.9375 66.8457 21.0898C66.791 20.2422 66.668 19.5039 66.4766 18.875C66.2852 18.2188 66.0664 17.6855 65.8203 17.2754C65.5742 16.8652 65.3145 16.5781 65.041 16.4141C64.5762 16.168 64.0156 15.9766 63.3594 15.8398C62.7031 15.6758 62.1426 15.7031 61.6777 15.9219C61.459 16.0312 61.1855 16.2637 60.8574 16.6191C60.5293 16.9746 60.2012 17.4258 59.873 17.9727C59.5449 18.4922 59.2441 19.0938 58.9707 19.7773C58.7246 20.4609 58.5469 21.1719 58.4375 21.9102C58.3281 22.6484 58.3008 23.4414 58.3555 24.2891C58.4375 25.1367 58.6152 25.9434 58.8887 26.709C59.1621 27.4473 59.5449 28.0898 60.0371 28.6367C60.5566 29.1562 61.2129 29.457 62.0059 29.5391ZM74.3105 12.3535C74.8301 12.3809 75.2949 12.3945 75.7051 12.3945C76.1426 12.3672 76.5117 12.3398 76.8125 12.3125C77.168 12.2852 77.4824 12.2578 77.7559 12.2305C78.166 12.1758 78.5898 12.1074 79.0273 12.0254C79.4102 11.9707 79.8066 11.9023 80.2168 11.8203C80.6543 11.7109 81.0781 11.5879 81.4883 11.4512C81.3242 11.8613 81.1875 12.2168 81.0781 12.5176C80.9688 12.8184 80.8867 13.0781 80.832 13.2969C80.75 13.543 80.709 13.748 80.709 13.9121C80.6816 14.1035 80.668 14.3359 80.668 14.6094C80.6406 15.0742 80.6406 15.8262 80.668 16.8652C82.0898 15.6348 83.2793 14.6777 84.2363 13.9941C85.2207 13.3105 86 12.7773 86.5742 12.3945C87.2578 11.957 87.791 11.6699 88.1738 11.5332C89.1855 11.3691 90.0742 11.6016 90.8398 12.2305C91.168 12.5039 91.4824 12.873 91.7832 13.3379C92.084 13.7754 92.3438 14.3633 92.5625 15.1016C92.7812 15.8398 92.9453 16.7285 93.0547 17.7676C93.1641 18.7793 93.1777 19.9961 93.0957 21.418C92.5215 21.4727 92.002 21.5273 91.5371 21.582C91.0996 21.6367 90.7305 21.6777 90.4297 21.7051C90.0742 21.7598 89.7461 21.7871 89.4453 21.7871L88.3379 21.9102C87.9551 21.9648 87.4766 22.0195 86.9023 22.0742C86.3555 22.1016 85.6855 22.1562 84.8926 22.2383C86.041 21.3086 86.7793 20.502 87.1074 19.8184C87.4629 19.1074 87.6133 18.5195 87.5586 18.0547C87.5039 17.5352 87.2578 17.084 86.8203 16.7012C86.3008 16.4004 85.7402 16.291 85.1387 16.373C84.6191 16.4277 84.0176 16.6602 83.334 17.0703C82.6504 17.4805 81.9258 18.2461 81.1602 19.3672C81.2148 21.1172 81.2695 22.5664 81.3242 23.7148C81.4062 24.8633 81.4746 25.793 81.5293 26.5039C81.6113 27.3242 81.6797 27.9668 81.7344 28.4316C81.8164 28.8418 81.9805 29.2793 82.2266 29.7441C82.418 30.127 82.6914 30.5508 83.0469 31.0156C83.4023 31.4805 83.8672 31.9453 84.4414 32.4102C83.2383 32.3555 82.2539 32.3555 81.4883 32.4102C81.0234 32.4375 80.6133 32.4648 80.2578 32.4922C79.875 32.5469 79.4648 32.6016 79.0273 32.6562C78.6445 32.7109 78.1934 32.7656 77.6738 32.8203C77.1816 32.9023 76.6348 32.9844 76.0332 33.0664C76.252 32.7656 76.4297 32.4102 76.5664 32C76.7031 31.6172 76.8125 31.248 76.8945 30.8926C77.0039 30.4824 77.0859 30.0586 77.1406 29.6211C77.168 29.2383 77.1816 28.6641 77.1816 27.8984C77.209 27.1328 77.1953 26.2715 77.1406 25.3145C77.1133 24.3301 77.0723 23.3184 77.0176 22.2793C76.9629 21.2129 76.8945 20.2148 76.8125 19.2852C76.7305 18.3555 76.6348 17.5488 76.5254 16.8652C76.4434 16.1543 76.3477 15.6621 76.2383 15.3887C76.1016 15.0605 75.9375 14.7324 75.7461 14.4043C75.582 14.1035 75.377 13.7891 75.1309 13.4609C74.8848 13.1055 74.6113 12.7363 74.3105 12.3535ZM94.3262 6.16016C95.1465 6.24219 95.8301 6.31055 96.377 6.36523C96.9512 6.41992 97.416 6.46094 97.7715 6.48828C98.1816 6.51562 98.5098 6.5293 98.7559 6.5293C99.002 6.55664 99.3301 6.55664 99.7402 6.5293C100.096 6.50195 100.561 6.47461 101.135 6.44727C101.709 6.39258 102.434 6.31055 103.309 6.20117C103.117 6.47461 102.967 6.7207 102.857 6.93945C102.748 7.13086 102.652 7.30859 102.57 7.47266L102.324 7.96484C102.27 8.12891 102.215 8.29297 102.16 8.45703C102.105 8.59375 102.051 8.75781 101.996 8.94922C101.969 9.14062 101.941 9.3457 101.914 9.56445H108.23L107.656 12.8867L101.873 12.5586C101.736 13.9531 101.641 15.0332 101.586 15.7988C101.531 16.5645 101.477 17.125 101.422 17.4805L101.34 18.2188C101.258 19.2578 101.176 20.3926 101.094 21.623C101.012 22.8262 100.984 23.9473 101.012 24.9863C101.039 26.0254 101.135 26.9004 101.299 27.6113C101.463 28.2949 101.75 28.6367 102.16 28.6367C102.57 28.6367 102.953 28.5273 103.309 28.3086C103.664 28.0898 103.965 27.8301 104.211 27.5293C104.484 27.2285 104.689 26.9277 104.826 26.627C104.963 26.2988 105.031 26.0527 105.031 25.8887C105.031 25.7246 104.99 25.5332 104.908 25.3145C104.771 24.9043 104.525 24.3848 104.17 23.7559C104.963 23.9473 105.66 24.1387 106.262 24.3301C106.562 24.4395 106.836 24.5488 107.082 24.6582C107.355 24.7676 107.67 24.8906 108.025 25.0273C108.326 25.1641 108.709 25.3281 109.174 25.5195C109.639 25.7109 110.186 25.9434 110.814 26.2168C110.213 26.3262 109.775 26.5039 109.502 26.75C109.338 26.8594 109.215 26.9824 109.133 27.1191C108.941 27.4199 108.723 27.8301 108.477 28.3496C108.23 28.8418 107.861 29.334 107.369 29.8262C106.877 30.3184 106.207 30.7559 105.359 31.1387C104.539 31.5215 103.432 31.7402 102.037 31.7949C100.588 31.8496 99.4805 31.6035 98.7148 31.0566C97.9766 30.5098 97.4297 29.8809 97.0742 29.1699C96.7461 28.4316 96.5547 27.707 96.5 26.9961C96.4453 26.2852 96.4043 25.8066 96.377 25.5605C96.3496 25.3145 96.3496 24.6992 96.377 23.7148C96.4043 22.7305 96.4453 21.6504 96.5 20.4746C96.5547 19.2715 96.6094 18.123 96.6641 17.0293C96.7188 15.9082 96.7461 15.0879 96.7461 14.5684C96.7461 14.2949 96.7598 14.0078 96.7871 13.707C96.7871 13.4609 96.7871 13.2012 96.7871 12.9277C96.8145 12.627 96.8281 12.3398 96.8281 12.0664L90.8809 12.0254L90.6348 9.6875L96.623 9.85156C96.5684 9.55078 96.5 9.27734 96.418 9.03125C96.3633 8.75781 96.3086 8.53906 96.2539 8.375C96.1719 8.18359 96.0898 8.01953 96.0078 7.88281C95.8984 7.74609 95.7754 7.5957 95.6387 7.43164C95.502 7.29492 95.3242 7.11719 95.1055 6.89844C94.8867 6.67969 94.627 6.43359 94.3262 6.16016ZM109.133 13.666L116.68 13.748C116.242 15.416 115.914 16.8379 115.695 18.0137C115.504 19.1895 115.381 20.1738 115.326 20.9668C115.217 21.8691 115.189 22.6348 115.244 23.2637C115.326 23.8379 115.463 24.4531 115.654 25.1094C115.818 25.6562 116.064 26.2852 116.393 26.9961C116.721 27.707 117.158 28.418 117.705 29.1289C117.377 29.0195 117.021 28.9375 116.639 28.8828C116.256 28.8281 115.9 28.7871 115.572 28.7598C115.189 28.7324 114.807 28.7324 114.424 28.7598C114.041 28.7871 113.617 28.8281 113.152 28.8828C112.77 28.9375 112.305 29.0059 111.758 29.0879C111.211 29.1699 110.637 29.2793 110.035 29.416C110.445 28.1855 110.76 27.1191 110.979 26.2168C111.225 25.3145 111.402 24.5625 111.512 23.9609C111.621 23.25 111.689 22.6758 111.717 22.2383C111.717 21.6914 111.717 21.0762 111.717 20.3926C111.717 19.6816 111.717 18.998 111.717 18.3418C111.717 17.6855 111.703 17.1113 111.676 16.6191C111.648 16.0996 111.594 15.7715 111.512 15.6348L111.102 15.2246C110.938 15.0879 110.691 14.8965 110.363 14.6504C110.062 14.377 109.652 14.0488 109.133 13.666ZM112.045 7.34961C112.619 7.04883 113.193 6.9668 113.768 7.10352C114.369 7.24023 114.834 7.5 115.162 7.88281C115.49 8.26562 115.6 8.7168 115.49 9.23633C115.408 9.75586 114.971 10.2617 114.178 10.7539C113.385 11.2188 112.688 11.3828 112.086 11.2461C111.484 11.1094 111.061 10.8223 110.814 10.3848C110.568 9.94727 110.527 9.44141 110.691 8.86719C110.855 8.26562 111.307 7.75977 112.045 7.34961ZM120.453 27.4883C120.645 26.5859 120.781 25.793 120.863 25.1094C120.973 24.3984 121.055 23.8105 121.109 23.3457C121.164 22.7988 121.191 22.334 121.191 21.9512C121.164 21.4863 121.137 20.9395 121.109 20.3105C121.109 19.6543 121.082 19.0117 121.027 18.3828C121 17.7266 120.959 17.1523 120.904 16.6602C120.85 16.1406 120.781 15.7715 120.699 15.5527C120.59 15.334 120.439 15.1016 120.248 14.8555C119.865 14.3906 119.305 13.9395 118.566 13.502C119.195 13.3652 119.729 13.2559 120.166 13.1738C120.631 13.0645 121.014 12.9688 121.314 12.8867C121.643 12.7773 121.93 12.6816 122.176 12.5996C122.395 12.5176 122.654 12.4355 122.955 12.3535C123.201 12.2988 123.502 12.2305 123.857 12.1484C124.213 12.0664 124.623 11.9707 125.088 11.8613L124.965 15.5938C125.84 14.5547 126.729 13.7754 127.631 13.2559C128.533 12.7363 129.381 12.3672 130.174 12.1484C131.076 11.875 131.965 11.7383 132.84 11.7383C133.934 11.793 134.945 11.9707 135.875 12.2715C136.832 12.5723 137.652 12.9277 138.336 13.3379C139.047 13.7207 139.621 14.1309 140.059 14.5684C140.496 15.0059 140.756 15.3887 140.838 15.7168C141.166 16.7832 141.248 17.7676 141.084 18.6699C140.92 19.5449 140.701 20.4062 140.428 21.2539C140.182 22.0742 139.963 22.8945 139.771 23.7148C139.607 24.5352 139.676 25.4238 139.977 26.3809C140.086 26.627 140.195 26.873 140.305 27.1191C140.414 27.3379 140.551 27.5566 140.715 27.7754C140.879 27.9941 141.07 28.1719 141.289 28.3086C140.988 28.2812 140.688 28.2676 140.387 28.2676C140.086 28.2402 139.812 28.2129 139.566 28.1855C139.266 28.1582 138.992 28.1309 138.746 28.1035C138.473 28.0762 138.104 28.0625 137.639 28.0625C136.846 28.0625 135.615 28.1035 133.947 28.1855C134.193 27.6113 134.385 27.1328 134.521 26.75C134.686 26.3398 134.822 26.0117 134.932 25.7656C135.041 25.4648 135.123 25.2324 135.178 25.0684C135.506 24.2754 135.697 23.373 135.752 22.3613C135.834 21.3496 135.766 20.3242 135.547 19.2852C135.465 18.9297 135.328 18.5059 135.137 18.0137C134.945 17.5215 134.686 17.043 134.357 16.5781C134.057 16.1133 133.688 15.7168 133.25 15.3887C132.84 15.0605 132.361 14.8691 131.814 14.8145C131.268 14.7598 130.652 14.8965 129.969 15.2246C129.312 15.5527 128.602 16.1543 127.836 17.0293C127.262 17.7676 126.811 18.6699 126.482 19.7363C126.182 20.6387 125.977 21.7734 125.867 23.1406C125.758 24.4805 125.922 26.0527 126.359 27.8574C125.977 27.8027 125.621 27.7754 125.293 27.7754C124.965 27.748 124.691 27.7207 124.473 27.6934C124.199 27.666 123.953 27.6387 123.734 27.6113C123.488 27.6113 123.215 27.5977 122.914 27.5703C122.641 27.5703 122.299 27.5703 121.889 27.5703C121.479 27.543 121 27.5156 120.453 27.4883ZM163.15 14.6094C163.068 14.0625 163 13.6113 162.945 13.2559C162.891 12.873 162.836 12.5723 162.781 12.3535C162.727 12.0801 162.686 11.875 162.658 11.7383C162.604 11.6016 162.535 11.4512 162.453 11.2871C162.398 11.1504 162.303 10.9863 162.166 10.7949C162.057 10.6035 161.92 10.3848 161.756 10.1387C162.111 10.248 162.467 10.3164 162.822 10.3438C163.205 10.3711 163.561 10.3984 163.889 10.4258C164.244 10.4531 164.613 10.4531 164.996 10.4258C165.379 10.4258 165.816 10.4121 166.309 10.3848C166.746 10.3574 167.266 10.3438 167.867 10.3438C168.496 10.3164 169.207 10.2754 170 10.2207C169.535 10.3301 169.139 10.5215 168.811 10.7949C168.51 11.041 168.25 11.3145 168.031 11.6152C167.785 11.9434 167.58 12.2988 167.416 12.6816C167.279 13.0371 167.197 13.7207 167.17 14.7324C167.143 15.7168 167.143 16.8926 167.17 18.2598C167.197 19.5996 167.225 21.0488 167.252 22.6074C167.307 24.166 167.334 25.6562 167.334 27.0781C167.361 28.5 167.361 29.7988 167.334 30.9746C167.307 32.123 167.238 32.9707 167.129 33.5176C166.746 35.2402 166.035 36.6348 164.996 37.7012C163.957 38.7949 162.59 39.3828 160.895 39.4648C158.844 39.5469 157.217 39.3555 156.014 38.8906C154.838 38.4258 153.922 37.8516 153.266 37.168C152.609 36.5117 152.117 35.8418 151.789 35.1582C151.461 34.4746 151.119 33.9551 150.764 33.5996C150.436 33.2988 150.107 33.0117 149.779 32.7383C149.479 32.5195 149.164 32.3008 148.836 32.082C148.535 31.8633 148.234 31.7266 147.934 31.6719C148.727 31.6992 149.438 31.7129 150.066 31.7129C150.695 31.7129 151.229 31.7129 151.666 31.7129C152.158 31.7129 152.596 31.6992 152.979 31.6719H154.291H158.023C157.477 31.8359 157.066 32.0137 156.793 32.2051C156.52 32.4238 156.328 32.6426 156.219 32.8613C156.109 33.1074 156.055 33.3535 156.055 33.5996C156.164 34.2559 156.52 34.7344 157.121 35.0352C157.723 35.3359 158.543 35.5137 159.582 35.5684C160.594 35.623 161.291 35.5957 161.674 35.4863C162.057 35.4043 162.357 35.2402 162.576 34.9941C163.014 34.3379 163.383 33.4902 163.684 32.4512C163.902 31.5762 164.053 30.4414 164.135 29.0469C164.244 27.625 164.121 25.8887 163.766 23.8379C162.891 25.041 161.879 25.9434 160.73 26.5449C159.582 27.1465 158.488 27.584 157.449 27.8574C156.219 28.1582 154.975 28.3086 153.717 28.3086C150.408 28.1719 147.934 27.4062 146.293 26.0117C144.652 24.6172 143.9 22.7441 144.037 20.3926C144.119 19.2168 144.475 18.041 145.104 16.8652C145.76 15.6895 146.607 14.6367 147.646 13.707C148.713 12.7773 149.93 12.0391 151.297 11.4922C152.664 10.9453 154.086 10.7129 155.562 10.7949C156.684 10.9043 157.736 11.1094 158.721 11.4102C159.568 11.6836 160.402 12.0664 161.223 12.5586C162.07 13.0508 162.713 13.7344 163.15 14.6094ZM150.107 18.7109C149.943 19.7773 150.012 20.7754 150.312 21.7051C150.641 22.6348 151.092 23.4414 151.666 24.125C152.24 24.7812 152.883 25.3008 153.594 25.6836C154.305 26.0391 154.975 26.2031 155.604 26.1758C156.916 26.1484 158.051 25.5605 159.008 24.4121C159.965 23.2363 160.539 21.4863 160.73 19.1621C160.812 18.0137 160.662 17.0293 160.279 16.209C159.924 15.3613 159.473 14.6777 158.926 14.1582C158.379 13.6387 157.805 13.2695 157.203 13.0508C156.602 12.832 156.123 12.7363 155.768 12.7637C155.275 12.8184 154.729 12.9688 154.127 13.2148C153.553 13.4336 152.992 13.7754 152.445 14.2402C151.898 14.6777 151.406 15.2656 150.969 16.0039C150.559 16.7422 150.271 17.6445 150.107 18.7109ZM181.361 13.625C182.072 13.625 182.811 13.7617 183.576 14.0352C184.342 14.2812 185.08 14.6094 185.791 15.0195C186.502 15.4023 187.145 15.8262 187.719 16.291C188.32 16.7285 188.812 17.1523 189.195 17.5625C189.879 18.3008 190.344 19.2988 190.59 20.5566C190.863 21.7871 190.918 23.0586 190.754 24.3711C190.59 25.6562 190.207 26.873 189.605 28.0215C189.004 29.1699 188.17 30.0176 187.104 30.5645C186.338 30.9473 185.586 31.248 184.848 31.4668C184.109 31.6855 183.398 31.8496 182.715 31.959C182.031 32.0684 181.389 32.123 180.787 32.123C180.186 32.123 179.666 32.1094 179.229 32.082C178.408 32.0273 177.547 31.7402 176.645 31.2207C175.77 30.7012 174.936 30.0586 174.143 29.293C173.377 28.5273 172.721 27.6934 172.174 26.791C171.627 25.8613 171.299 24.9863 171.189 24.166C171.025 23.0449 170.998 21.8691 171.107 20.6387C171.217 19.4082 171.613 18.2734 172.297 17.2344C173.008 16.1953 174.074 15.334 175.496 14.6504C176.945 13.9668 178.9 13.625 181.361 13.625ZM180.008 29.5391C180.309 29.5938 180.719 29.5254 181.238 29.334C181.758 29.1152 182.264 28.7734 182.756 28.3086C183.275 27.8438 183.727 27.2559 184.109 26.5449C184.52 25.8066 184.766 24.918 184.848 23.8789C184.93 22.8672 184.93 21.9375 184.848 21.0898C184.793 20.2422 184.67 19.5039 184.479 18.875C184.287 18.2188 184.068 17.6855 183.822 17.2754C183.576 16.8652 183.316 16.5781 183.043 16.4141C182.578 16.168 182.018 15.9766 181.361 15.8398C180.705 15.6758 180.145 15.7031 179.68 15.9219C179.461 16.0312 179.188 16.2637 178.859 16.6191C178.531 16.9746 178.203 17.4258 177.875 17.9727C177.547 18.4922 177.246 19.0938 176.973 19.7773C176.727 20.4609 176.549 21.1719 176.439 21.9102C176.33 22.6484 176.303 23.4414 176.357 24.2891C176.439 25.1367 176.617 25.9434 176.891 26.709C177.164 27.4473 177.547 28.0898 178.039 28.6367C178.559 29.1562 179.215 29.457 180.008 29.5391Z" fill="#2245C2"/>
</svg>
