<svg width="27" height="27" viewBox="0 0 27 27" fill="none" xmlns="http://www.w3.org/2000/svg">
<path fill-rule="evenodd" clip-rule="evenodd" d="M13.4507 26.1612C15.1525 26.1612 16.8376 25.8261 18.4098 25.1748C19.982 24.5236 21.4105 23.5691 22.6138 22.3658C23.8171 21.1625 24.7716 19.7339 25.4229 18.1617C26.0741 16.5895 26.4093 14.9044 26.4093 13.2027C26.4093 11.5009 26.0741 9.81587 25.4229 8.24367C24.7716 6.67146 23.8171 5.24292 22.6138 4.03961C21.4105 2.8363 19.982 1.88178 18.4098 1.23055C16.8376 0.579323 15.1525 0.244141 13.4507 0.244141C10.0139 0.244141 6.71786 1.60941 4.28766 4.03961C1.85746 6.46981 0.492188 9.76587 0.492188 13.2027C0.492187 16.6395 1.85746 19.9356 4.28766 22.3658C6.71786 24.796 10.0139 26.1612 13.4507 26.1612ZM13.1167 18.4437L20.3159 9.80467L18.1043 7.96168L11.913 15.3898L8.70935 12.1847L6.67342 14.2207L10.9929 18.5402L12.1074 19.6546L13.1167 18.4437Z" fill="#2245C2"/>
</svg>
