<svg width="39" height="39" viewBox="0 0 39 39" fill="none" xmlns="http://www.w3.org/2000/svg">
<path d="M12.675 3.25049H26.325C31.525 3.25049 35.75 7.47549 35.75 12.6755V26.3255C35.75 28.8252 34.757 31.2224 32.9895 32.99C31.222 34.7575 28.8247 35.7505 26.325 35.7505H12.675C7.475 35.7505 3.25 31.5255 3.25 26.3255V12.6755C3.25 10.1758 4.24299 7.77854 6.01052 6.01101C7.77805 4.24348 10.1753 3.25049 12.675 3.25049ZM12.35 6.50049C10.7985 6.50049 9.31051 7.11683 8.21343 8.21391C7.11634 9.311 6.5 10.799 6.5 12.3505V26.6505C6.5 29.8842 9.11625 32.5005 12.35 32.5005H26.65C28.2015 32.5005 29.6895 31.8842 30.7866 30.7871C31.8837 29.69 32.5 28.202 32.5 26.6505V12.3505C32.5 9.11674 29.8837 6.50049 26.65 6.50049H12.35ZM28.0312 8.93799C28.57 8.93799 29.0866 9.15199 29.4676 9.53293C29.8485 9.91386 30.0625 10.4305 30.0625 10.9692C30.0625 11.508 29.8485 12.0246 29.4676 12.4055C29.0866 12.7865 28.57 13.0005 28.0312 13.0005C27.4925 13.0005 26.9759 12.7865 26.5949 12.4055C26.214 12.0246 26 11.508 26 10.9692C26 10.4305 26.214 9.91386 26.5949 9.53293C26.9759 9.15199 27.4925 8.93799 28.0312 8.93799ZM19.5 11.3755C21.6549 11.3755 23.7215 12.2315 25.2452 13.7552C26.769 15.279 27.625 17.3456 27.625 19.5005C27.625 21.6554 26.769 23.722 25.2452 25.2457C23.7215 26.7695 21.6549 27.6255 19.5 27.6255C17.3451 27.6255 15.2785 26.7695 13.7548 25.2457C12.231 23.722 11.375 21.6554 11.375 19.5005C11.375 17.3456 12.231 15.279 13.7548 13.7552C15.2785 12.2315 17.3451 11.3755 19.5 11.3755ZM19.5 14.6255C18.2071 14.6255 16.9671 15.1391 16.0529 16.0533C15.1386 16.9676 14.625 18.2076 14.625 19.5005C14.625 20.7934 15.1386 22.0334 16.0529 22.9476C16.9671 23.8619 18.2071 24.3755 19.5 24.3755C20.7929 24.3755 22.0329 23.8619 22.9471 22.9476C23.8614 22.0334 24.375 20.7934 24.375 19.5005C24.375 18.2076 23.8614 16.9676 22.9471 16.0533C22.0329 15.1391 20.7929 14.6255 19.5 14.6255Z" fill="black"/>
</svg>
