<svg width="62" height="62" viewBox="0 0 62 62" fill="none" xmlns="http://www.w3.org/2000/svg">
<path d="M33.8566 48.7214C34.1977 49.0614 34.4683 49.4653 34.653 49.91C34.8377 50.3548 34.9327 50.8316 34.9327 51.3132C34.9327 51.7947 34.8377 52.2716 34.653 52.7163C34.4683 53.161 34.1977 53.565 33.8566 53.9049L32.0454 55.716C28.6134 59.148 23.9586 61.0761 19.1051 61.0761C14.2515 61.0761 9.59674 59.148 6.16475 55.716C2.73276 52.2841 0.804688 47.6293 0.804688 42.7757C0.804688 37.9221 2.73276 33.2674 6.16475 29.8354L13.5192 22.484C16.8167 19.1783 21.2534 17.2586 25.9205 17.118C30.5876 16.9774 35.1318 18.6266 38.6223 21.7279C38.9827 22.0482 39.2764 22.4364 39.4868 22.8702C39.6971 23.3041 39.82 23.7751 39.8483 24.2564C39.8766 24.7378 39.8098 25.22 39.6518 25.6755C39.4938 26.131 39.2475 26.5509 38.9272 26.9113C38.6069 27.2717 38.2187 27.5654 37.7849 27.7758C37.351 27.9861 36.88 28.109 36.3986 28.1373C35.9173 28.1656 35.4351 28.0988 34.9796 27.9408C34.5241 27.7828 34.1041 27.5365 33.7438 27.2162C31.6506 25.3573 28.9263 24.3683 26.1281 24.4516C23.3299 24.5349 20.6692 25.6842 18.6904 27.6644L11.3421 35.0066C9.28323 37.0655 8.12657 39.8579 8.12657 42.7696C8.12657 45.6813 9.28323 48.4737 11.3421 50.5326C13.401 52.5915 16.1934 53.7481 19.1051 53.7481C22.0168 53.7481 24.8092 52.5915 26.8681 50.5326L28.6792 48.7214C29.019 48.3812 29.4226 48.1114 29.8668 47.9272C30.3109 47.7431 30.7871 47.6483 31.2679 47.6483C31.7487 47.6483 32.2249 47.7431 32.669 47.9272C33.1132 48.1114 33.5168 48.3812 33.8566 48.7214ZM56.4442 5.42438C53.0094 1.99767 48.3557 0.0732422 43.5039 0.0732422C38.6521 0.0732422 33.9983 1.99767 30.5636 5.42438L28.7524 7.23554C28.065 7.92291 27.6789 8.85518 27.6789 9.82727C27.6789 10.7994 28.065 11.7316 28.7524 12.419C29.4398 13.1064 30.372 13.4925 31.3441 13.4925C32.3162 13.4925 33.2485 13.1064 33.9358 12.419L35.747 10.6078C37.8059 8.54896 40.5983 7.3923 43.51 7.3923C46.4217 7.3923 49.2141 8.54896 51.273 10.6078C53.3318 12.6667 54.4885 15.4591 54.4885 18.3708C54.4885 21.2825 53.3318 24.0749 51.273 26.1338L43.9216 33.4882C41.9411 35.4676 39.2789 36.6152 36.48 36.6962C33.6811 36.7773 30.957 35.7856 28.8652 33.9242C28.5048 33.6039 28.0849 33.3577 27.6294 33.1996C27.1739 33.0416 26.6917 32.9748 26.2103 33.0031C25.729 33.0315 25.258 33.1543 24.8241 33.3646C24.3903 33.575 24.0021 33.8687 23.6818 34.2291C23.3614 34.5895 23.1152 35.0094 22.9572 35.465C22.7991 35.9205 22.7324 36.4027 22.7607 36.884C22.789 37.3653 22.9118 37.8364 23.1222 38.2702C23.3326 38.7041 23.6263 39.0922 23.9867 39.4126C27.4748 42.5131 32.0159 44.1634 36.6808 44.0256C41.3457 43.8879 45.7816 41.9726 49.0807 38.6716L56.4351 31.3203C59.8658 27.8863 61.7936 23.2313 61.7954 18.3773C61.7971 13.5232 59.8725 8.86686 56.4442 5.43048V5.42438Z" fill="white"/>
</svg>
