<svg width="29" height="42" viewBox="0 0 29 42" fill="none" xmlns="http://www.w3.org/2000/svg">
<path d="M14.5 20.1925C13.1266 20.1925 11.8094 19.6455 10.8382 18.6718C9.86703 17.698 9.32143 16.3773 9.32143 15.0003C9.32143 13.6232 9.86703 12.3025 10.8382 11.3288C11.8094 10.355 13.1266 9.808 14.5 9.808C15.8734 9.808 17.1906 10.355 18.1618 11.3288C19.133 12.3025 19.6786 13.6232 19.6786 15.0003C19.6786 15.6821 19.5446 16.3573 19.2844 16.9873C19.0241 17.6172 18.6427 18.1896 18.1618 18.6718C17.6809 19.1539 17.11 19.5364 16.4818 19.7973C15.8535 20.0582 15.1801 20.1925 14.5 20.1925ZM14.5 0.461914C10.6544 0.461914 6.96623 1.99363 4.24695 4.7201C1.52767 7.44657 0 11.1445 0 15.0003C0 25.904 14.5 42.0001 14.5 42.0001C14.5 42.0001 29 25.904 29 15.0003C29 11.1445 27.4723 7.44657 24.753 4.7201C22.0338 1.99363 18.3456 0.461914 14.5 0.461914Z" fill="black"/>
</svg>
