<svg width="32" height="26" viewBox="0 0 32 26" fill="none" xmlns="http://www.w3.org/2000/svg">
<path d="M0.1088 2.58646L14.3088 16.8256C14.7289 17.2471 15.29 17.4973 15.8835 17.5279C16.477 17.5584 17.0607 17.367 17.5216 16.9909L17.704 16.8256L31.8944 2.59608C31.9408 2.77255 31.9712 2.95222 31.9872 3.13671L32 3.41745V22.6682C32.0003 23.4777 31.6953 24.2573 31.1464 24.8509C30.5975 25.4444 29.845 25.808 29.04 25.8687L28.8 25.8767H3.2C2.39268 25.877 1.61509 25.5713 1.02312 25.0209C0.431153 24.4705 0.0685493 23.7161 0.00800018 22.9089L0 22.6682V3.41745C0 3.22494 0.016 3.03885 0.048 2.85597L0.1088 2.58646ZM28.8 0.208984C28.9936 0.208984 29.184 0.225027 29.368 0.258716L29.64 0.321281L16.008 13.9893L2.3712 0.318072C2.5472 0.269945 2.7296 0.23786 2.9152 0.221818L3.2 0.208984H28.8Z" fill="black"/>
</svg>
