<svg width="25" height="31" viewBox="0 0 25 31" fill="none" xmlns="http://www.w3.org/2000/svg">
<path d="M21.984 30.6885C18.9132 30.2751 15.9691 29.1956 13.1517 27.4502C10.3343 25.7047 7.86223 23.4345 5.73559 20.6397C3.60881 17.8457 2.07746 14.8562 1.14152 11.6709C0.205591 8.48568 -0.0566916 5.35352 0.354676 2.27444C0.414054 1.83108 0.610935 1.48145 0.94532 1.22556C1.2797 0.969671 1.668 0.871495 2.11019 0.93103L8.07987 1.73476C8.4238 1.78106 8.71518 1.93965 8.95401 2.21053C9.19284 2.48141 9.31544 2.77976 9.32182 3.1056L9.58717 8.40722C9.58352 8.80794 9.52671 9.13882 9.41672 9.39984C9.30673 9.66086 9.14028 9.87667 8.91735 10.0473L4.858 13.1869C5.22727 14.1644 5.69258 15.1232 6.25393 16.0634C6.81528 17.0036 7.44894 17.9229 8.15493 18.8214C8.81423 19.6875 9.51777 20.5034 10.2655 21.2691C11.0133 22.0348 11.8178 22.7509 12.6788 23.4175L16.6079 20.4108C16.8587 20.2189 17.1698 20.0918 17.5413 20.0295C17.9128 19.9672 18.2667 19.9832 18.6032 20.0777L23.55 21.7969C23.8807 21.9417 24.1393 22.1585 24.3257 22.4474C24.5121 22.7363 24.5839 23.0404 24.5411 23.3596L23.7395 29.3451C23.6801 29.7884 23.4833 30.1381 23.1489 30.394C22.8145 30.6499 22.4262 30.748 21.984 30.6885Z" fill="black"/>
</svg>
