<svg width="60" height="59" viewBox="0 0 60 59" fill="none" xmlns="http://www.w3.org/2000/svg">
<path d="M8.18013 4.06152H4.53711V51.4207C4.53711 52.3869 4.92093 53.3135 5.60412 53.9967C6.28732 54.6799 7.21394 55.0637 8.18013 55.0637H55.5393V51.4207H8.18013V4.06152Z" fill="white"/>
<path d="M55.5385 16.8115H42.7879V20.4545H49.3271L35.5019 34.2798L27.6876 26.4473C27.5183 26.2766 27.3168 26.1411 27.0948 26.0486C26.8729 25.9561 26.6348 25.9085 26.3943 25.9085C26.1539 25.9085 25.9158 25.9561 25.6938 26.0486C25.4719 26.1411 25.2704 26.2766 25.1011 26.4473L11.8223 39.7443L14.3906 42.3126L26.3943 30.3089L34.2086 38.1414C34.3779 38.3121 34.5794 38.4476 34.8014 38.5401C35.0233 38.6326 35.2614 38.6802 35.5019 38.6802C35.7423 38.6802 35.9804 38.6326 36.2024 38.5401C36.4243 38.4476 36.6258 38.3121 36.7951 38.1414L51.8954 23.0229V29.5621H55.5385V16.8115Z" fill="white"/>
</svg>
