<svg width="58" height="58" viewBox="0 0 58 58" fill="none" xmlns="http://www.w3.org/2000/svg">
<path d="M19.3433 57.0563C15.8622 57.0563 12.8822 55.8168 10.4032 53.3378C7.92423 50.8589 6.68475 47.8788 6.68475 44.3977V18.5268C4.83871 17.8411 3.32285 16.6945 2.13716 15.0868C0.951476 13.4792 0.357579 11.6458 0.355469 9.58669C0.355469 6.94949 1.27849 4.70787 3.12453 2.86183C4.97057 1.01579 7.21219 0.0927734 9.84939 0.0927734C12.4866 0.0927734 14.7282 1.01579 16.5742 2.86183C18.4203 4.70787 19.3433 6.94949 19.3433 9.58669C19.3433 11.6437 18.7505 13.4771 17.5648 15.0868C16.3791 16.6966 14.8622 17.8432 13.014 18.5268V44.3977C13.014 46.1383 13.6343 47.6288 14.8748 48.8694C16.1154 50.1099 17.6049 50.7291 19.3433 50.727C21.0839 50.727 22.5744 50.1078 23.8149 48.8694C25.0555 47.6309 25.6747 46.1404 25.6726 44.3977V12.7513C25.6726 9.27023 26.9121 6.29019 29.391 3.81123C31.87 1.33226 34.85 0.0927734 38.3311 0.0927734C41.8123 0.0927734 44.7923 1.33226 47.2713 3.81123C49.7502 6.29019 50.9897 9.27023 50.9897 12.7513V38.6223C52.8357 39.3079 54.3527 40.4556 55.5405 42.0654C56.7283 43.6751 57.3211 45.5075 57.319 47.5624C57.319 50.1996 56.396 52.4412 54.5499 54.2872C52.7039 56.1333 50.4623 57.0563 47.8251 57.0563C45.1879 57.0563 42.9462 56.1333 41.1002 54.2872C39.2542 52.4412 38.3311 50.1996 38.3311 47.5624C38.3311 45.5054 38.925 43.6593 40.1128 42.0243C41.3006 40.3892 42.8165 39.2552 44.6604 38.6223V12.7513C44.6604 11.0108 44.0412 9.52129 42.8028 8.28286C41.5644 7.04443 40.0738 6.42416 38.3311 6.42205C36.5906 6.42205 35.1011 7.04232 33.8627 8.28286C32.6242 9.5234 32.004 11.0129 32.0019 12.7513V44.3977C32.0019 47.8788 30.7624 50.8589 28.2834 53.3378C25.8044 55.8168 22.8244 57.0563 19.3433 57.0563ZM9.84939 12.7513C10.746 12.7513 11.4982 12.4475 12.1058 11.8399C12.7134 11.2323 13.0161 10.4812 13.014 9.58669C13.014 8.69005 12.7102 7.93897 12.1026 7.33347C11.495 6.72797 10.7439 6.42416 9.84939 6.42205C8.95274 6.42205 8.20167 6.72586 7.59617 7.33347C6.99066 7.94108 6.68686 8.69215 6.68475 9.58669C6.68475 10.4833 6.98855 11.2355 7.59617 11.8431C8.20378 12.4507 8.95485 12.7534 9.84939 12.7513ZM47.8251 50.727C48.7217 50.727 49.4738 50.4232 50.0815 49.8156C50.6891 49.208 50.9918 48.4569 50.9897 47.5624C50.9897 46.6657 50.6859 45.9146 50.0783 45.3092C49.4707 44.7036 48.7196 44.3998 47.8251 44.3977C46.9284 44.3977 46.1773 44.7015 45.5718 45.3092C44.9663 45.9168 44.6625 46.6678 44.6604 47.5624C44.6604 48.459 44.9642 49.2111 45.5718 49.8188C46.1795 50.4264 46.9305 50.7291 47.8251 50.727Z" fill="white"/>
</svg>
