<svg width="40" height="39" viewBox="0 0 40 39" fill="none" xmlns="http://www.w3.org/2000/svg">
<g clip-path="url(#clip0_191_27)">
<path fill-rule="evenodd" clip-rule="evenodd" d="M29.5382 11.3573C28.9646 10.5318 27.4306 9.37152 24.946 9.87202C23.4965 10.1629 22.6303 10.8795 22.0795 11.8253C21.4928 12.8328 21.2085 14.2026 21.2085 15.7968C21.2085 16.2278 21.0373 16.6411 20.7325 16.9458C20.4278 17.2506 20.0144 17.4218 19.5835 17.4218C15.7387 17.4218 12.0792 16.2794 8.99983 13.1903C8.76734 14.4436 8.67578 15.7191 8.72683 16.9928C8.81296 18.7575 9.23383 20.5271 10.2332 22.0433C11.2163 23.5334 12.8332 24.8984 15.5372 25.7564C15.8022 25.8405 16.0411 25.9911 16.2313 26.1938C16.4214 26.3966 16.5563 26.6448 16.6232 26.9146C16.69 27.1844 16.6865 27.4668 16.6131 27.7349C16.5396 28.003 16.3985 28.2478 16.2035 28.4458C15.3373 29.3341 14.3557 30.1021 13.285 30.7289C15.0075 30.9076 16.6682 30.9206 18.2087 30.7809C21.3287 30.4981 23.8133 29.606 25.3668 28.3434C28.638 25.6914 30.3881 21.7361 30.0631 15.1094C30.0078 14.0206 31.0592 12.8458 31.5662 11.9536C30.8008 12.0966 30.0338 12.0706 29.5382 11.3573ZM8.05083 8.09915C8.34504 8.06496 8.643 8.11183 8.91251 8.23469C9.18201 8.35756 9.41281 8.55175 9.57996 8.79627C11.9785 12.3046 14.858 13.7639 18.0543 14.0954C18.2103 12.7288 18.5792 11.3784 19.2731 10.1889C20.2903 8.44365 21.9446 7.1599 24.3073 6.6854C27.5736 6.0289 30.0598 7.2119 31.5012 8.65977L34.4132 8.1154C34.7179 8.0583 35.0326 8.08957 35.3202 8.2055C35.6077 8.32144 35.8561 8.51721 36.0359 8.7697C36.2158 9.0222 36.3197 9.32089 36.3354 9.63051C36.3511 9.94014 36.2778 10.2478 36.1243 10.5171L33.3293 15.4279C33.5845 22.5145 31.615 27.461 27.416 30.8687C25.1897 32.6757 22.0015 33.701 18.5028 34.0179C14.9766 34.3364 10.9905 33.9513 7.02871 32.7943C6.69021 32.6955 6.39301 32.4894 6.18196 32.2069C5.97091 31.9244 5.85747 31.581 5.85876 31.2284C5.86004 30.8758 5.97598 30.5331 6.18908 30.2522C6.40218 29.9713 6.70087 29.7673 7.04008 29.671C9.03233 29.1039 10.5501 28.6148 11.92 27.7584C9.97158 26.7249 8.53671 25.3729 7.52108 23.8324C6.11058 21.6907 5.58733 19.3019 5.48333 17.1488C5.37933 14.9957 5.68971 13.0001 6.01796 11.562C6.20483 10.7414 6.42258 9.91915 6.72321 9.13265C6.82925 8.85541 7.0092 8.61251 7.24354 8.43031C7.47787 8.24812 7.75601 8.13358 8.05083 8.09915Z" fill="black"/>
</g>
<defs>
<clipPath id="clip0_191_27">
<rect width="39" height="39" fill="white" transform="translate(0.585938)"/>
</clipPath>
</defs>
</svg>
